<svg width="201" height="200" viewBox="0 0 201 200" fill="none" xmlns="http://www.w3.org/2000/svg">
<path d="M158.836 95.0687C160.012 94.3592 161.082 93.4438 161.729 92.2424C162.722 90.4 162.571 88.1479 162.077 86.1134C160.47 79.5141 155.553 74.0398 149.653 70.6726C143.969 67.4268 137.428 65.9686 130.904 65.3433C129.543 63.6264 127.883 62.2406 125.808 61.4978L121.825 60.6236C117.851 60.0467 113.843 59.7344 109.828 59.6887C107.097 64.0458 105.41 69.034 104.308 74.0751C103.646 77.1053 103.177 80.2138 103.452 83.3028C103.726 86.3918 104.794 89.4846 106.89 91.772C109.612 94.7453 113.83 96.0585 117.866 95.888C121.901 95.7174 125.759 94.1847 129.273 92.2071C129.769 91.9288 130.329 91.6289 130.88 91.772C131.315 91.8837 131.631 92.2443 131.929 92.5795C133.595 94.4351 135.55 96.009 137.719 97.2404C138.065 95.7641 138.299 94.2637 138.418 92.752C139.159 93.2733 139.92 93.7672 140.711 94.22C146.215 97.3658 153.42 98.3674 158.836 95.0687Z" fill="#AFAA96"/>
<path d="M72.864 77.264C74.4614 73.5028 76.2784 69.6455 79.136 66.7937C71.6681 68.2766 64.6618 71.5201 58.6991 76.2546C55.6298 78.6987 52.7819 81.6544 51.4883 85.3569C51.1766 86.2487 50.961 87.2267 51.2413 88.1283C51.5216 89.0299 52.2213 89.6826 52.9759 90.2137C56.6999 92.8323 61.8273 92.6677 66.0178 90.9037C67.0532 90.4649 68.0537 89.9479 69.0107 89.3572C69.6967 85.2275 71.2216 81.1037 72.864 77.264Z" fill="#AFAA96"/>
<path d="M122.019 89.9727C122.858 90.6884 123.381 91.7074 123.471 92.8069C123.566 93.9392 123.276 95.0704 122.648 96.0174C121.256 98.1734 118.728 99.1769 116.27 99.5022C113.499 99.8688 110.643 99.612 107.927 99.0024C106.534 98.6861 105.164 98.2802 103.824 97.7872C103.172 97.5481 102.535 97.2737 101.886 97.0209C101.605 96.894 101.294 96.8524 100.99 96.9013C100.678 96.999 100.383 97.1466 100.118 97.3384C98.8478 98.0969 97.4209 98.5379 95.9803 98.8456C95.2551 99.0024 94.5201 99.124 93.7871 99.2376C93.4588 99.3022 93.127 99.3473 92.7934 99.3729C92.5974 99.3729 92.221 99.3886 92.1289 99.1573C92.0953 99.0506 92.0029 98.9731 91.892 98.9584C91.7811 98.9437 91.6718 98.9945 91.6115 99.0887C91.3351 99.5591 90.6432 99.5689 90.165 99.61C89.5375 99.6672 88.9075 99.6901 88.2775 99.6786C87.0082 99.6745 85.7504 99.4366 84.5672 98.977C82.5837 98.1655 80.8138 96.3055 80.7237 94.077C80.6629 92.6207 81.3646 91.2898 82.0957 90.0766C82.1639 89.9424 82.1157 89.7783 81.9857 89.7024C81.8557 89.6264 81.689 89.6651 81.6057 89.7904C80.8785 91.0096 80.1945 92.3384 80.1612 93.7888C80.158 94.9673 80.537 96.1151 81.2411 97.0601C82.8091 99.2396 85.4218 100.127 88.0227 100.229C88.8247 100.257 89.6276 100.229 90.4257 100.145C91.0568 100.082 91.7546 99.9628 92.1034 99.3611L91.586 99.2945C91.7996 99.8217 92.3347 99.955 92.86 99.9217C93.5353 99.8573 94.2066 99.7566 94.871 99.6198C96.2495 99.4123 97.6013 99.0555 98.9027 98.5556C99.5443 98.2779 100.166 97.957 100.765 97.5952C101.061 97.4097 101.433 97.3933 101.745 97.552C102.08 97.6853 102.409 97.8304 102.746 97.9636C104.157 98.5255 105.603 98.9937 107.076 99.365C109.924 100.078 112.913 100.41 115.843 100.106C118.493 99.8296 121.184 98.9044 122.848 96.7112C123.675 95.6567 124.102 94.344 124.055 93.0048C123.989 91.6975 123.444 90.4039 122.423 89.5592C122.144 89.3279 121.741 89.7258 122.031 89.9512L122.019 89.9727Z" fill="black"/>
<path d="M109.093 82.9187C108.656 83.0265 108.215 82.6639 108.072 82.2386C107.928 81.8133 108.001 81.3468 108.072 80.9038C108.217 80.0532 108.375 79.1692 108.881 78.4695C109.159 78.0775 109.598 77.7541 110.067 77.8208C110.721 77.9148 111.019 78.6753 111.164 79.3202C111.45 80.6042 111.625 81.9105 111.688 83.2245C111.752 84.5965 111.688 85.99 111.296 87.3032C111.155 87.7638 110.937 88.2519 110.502 88.4577C110.022 88.685 109.424 88.4694 109.052 88.0892C108.679 87.709 108.481 87.1974 108.293 86.6996C108.038 86.0292 107.779 85.3276 107.881 84.6141C107.983 83.9007 108.589 83.2147 109.302 83.2833" fill="black"/>
<path d="M109.016 82.6462C108.675 82.7108 108.399 82.3718 108.319 82.0758C108.207 81.6681 108.307 81.2252 108.377 80.8194C108.505 80.0923 108.648 79.3377 109.063 78.7124C109.242 78.442 109.518 78.1519 109.847 78.1009C110.133 78.0778 110.406 78.2264 110.541 78.4792C110.933 79.079 111.006 79.9061 111.129 80.594C111.407 82.262 111.547 84.0103 111.343 85.69C111.292 86.1181 111.21 86.5419 111.098 86.9582C111.026 87.2974 110.893 87.6209 110.706 87.9127C110.245 88.5438 109.444 88.1969 109.065 87.6657C108.839 87.3132 108.659 86.9331 108.53 86.5348C108.345 86.1027 108.217 85.648 108.15 85.1824C108.081 84.4748 108.44 83.5066 109.299 83.5595C109.663 83.583 109.661 83.0166 109.299 82.995C108.458 82.9402 107.766 83.6791 107.617 84.465C107.421 85.445 107.864 86.478 108.252 87.358C108.599 88.142 109.281 88.926 110.228 88.8162C111.174 88.7065 111.492 87.7167 111.686 86.9327C112.193 84.8727 112.027 82.6501 111.686 80.5764C111.549 79.7316 111.455 78.6909 110.89 78.0029C110.326 77.315 109.385 77.462 108.816 78.0872C108.097 78.8712 107.909 80.0276 107.754 81.0448C107.674 81.574 107.631 82.164 107.94 82.6305C108.19 83.0498 108.673 83.2713 109.153 83.1871C109.51 83.1185 109.349 82.5736 109.003 82.6403L109.016 82.6462Z" fill="black"/>
<path d="M90.9843 82.9187C90.5472 83.0265 90.1062 82.6639 89.9631 82.2386C89.8201 81.8133 89.8926 81.3468 89.9631 80.9038C90.1082 80.0532 90.2669 79.1692 90.7726 78.4695C91.0509 78.0775 91.49 77.7541 91.9584 77.8208C92.6131 77.9148 92.9129 78.6753 93.056 79.3202C93.3418 80.6042 93.5169 81.9105 93.5793 83.2245C93.646 84.5965 93.5793 85.99 93.1873 87.3032C93.0482 87.7638 92.8306 88.2519 92.4033 88.4577C91.9212 88.685 91.3253 88.4694 90.9529 88.0892C90.5805 87.709 90.3806 87.1974 90.1925 86.6996C89.9377 86.0292 89.6789 85.3276 89.7828 84.6141C89.8867 83.9007 90.4884 83.2147 91.2019 83.2833" fill="black"/>
<path d="M90.9078 82.6462C90.5668 82.7108 90.2904 82.3718 90.2101 82.0758C90.0983 81.6681 90.1983 81.2252 90.2689 80.8194C90.3963 80.0923 90.5413 79.3377 90.9549 78.7124C91.1352 78.442 91.4115 78.1519 91.7487 78.1009C92.0346 78.0778 92.307 78.2264 92.4425 78.4792C92.8345 79.079 92.907 79.9061 93.0305 80.594C93.3425 82.274 93.4151 83.9897 93.2461 85.69C93.194 86.1179 93.1121 86.5417 93.0011 86.9582C92.9292 87.2974 92.7964 87.6208 92.6091 87.9127C92.1485 88.5438 91.3469 88.1969 90.9705 87.6657C90.7439 87.3133 90.5634 86.9332 90.4335 86.5348C90.2487 86.1024 90.1209 85.6478 90.0533 85.1824C89.9847 84.4748 90.3453 83.5066 91.2018 83.5595C91.5664 83.583 91.5644 83.0166 91.2018 82.995C90.3629 82.9402 89.6711 83.6791 89.5201 84.465C89.3339 85.445 89.7671 86.478 90.1571 87.358C90.5021 88.142 91.1842 88.926 92.1309 88.8162C93.0775 88.7065 93.397 87.7167 93.5891 86.9327C94.0987 84.8727 93.9321 82.6501 93.5891 80.5764C93.4539 79.7316 93.3578 78.6909 92.7933 78.0029C92.2289 77.315 91.2881 77.462 90.7197 78.0872C90.0023 78.8712 89.8141 80.0276 89.6573 81.0448C89.577 81.574 89.5339 82.164 89.8435 82.6305C90.0933 83.0498 90.576 83.2713 91.0568 83.1871C91.4155 83.1185 91.2626 82.5736 90.9059 82.6403L90.9078 82.6462Z" fill="black"/>
<path d="M102.976 116.347C101.382 116.241 99.7905 116.098 98.2049 115.935C94.2692 115.543 90.3021 115.014 86.5017 113.957C80.2767 133.075 79.5065 157.34 81.9937 170.209C82.0878 170.697 82.1897 171.223 81.9741 171.673C81.6762 172.314 80.8647 172.581 80.5335 173.206C80.1415 173.959 80.6374 174.939 81.3841 175.352C82.1309 175.766 83.0305 175.764 83.8831 175.744C87.7561 175.653 91.6206 175.392 95.4765 174.96C96.5722 174.839 97.7149 174.686 98.6223 174.059C100.655 172.648 100.571 169.668 100.267 167.21C98.148 150.147 96.139 132.054 102.976 116.347Z" fill="#AFAA96"/>
<path d="M121.76 114.471C120.171 115.025 118.542 115.459 116.888 115.77C113.222 116.462 109.491 116.611 105.757 116.484C99.4416 135.268 102.717 157.561 105.155 170.203C105.249 170.691 105.351 171.217 105.135 171.667C104.838 172.308 104.024 172.575 103.695 173.2C103.303 173.953 103.799 174.933 104.545 175.346C105.292 175.76 106.192 175.758 107.044 175.738C110.917 175.647 114.782 175.386 118.638 174.954C119.734 174.833 120.876 174.68 121.784 174.053C123.816 172.642 123.732 169.662 123.428 167.204C121.472 151.352 117.003 130.172 121.76 114.471V114.471Z" fill="#AFAA96"/>
<path d="M102.976 116.072C98.6635 115.786 94.3319 115.362 90.0963 114.524C88.9203 114.288 87.7443 114.016 86.5781 113.694C86.4281 113.655 86.2738 113.742 86.2293 113.89C84.8103 118.312 83.6752 122.82 82.8306 127.387C81.9682 131.968 81.3489 136.599 80.9412 141.238C80.559 145.627 80.3649 150.033 80.3904 154.437C80.3942 158.252 80.6115 162.065 81.0411 165.856C81.1365 166.667 81.2469 167.478 81.3724 168.288C81.4978 169.1 81.6997 169.911 81.7918 170.727C81.8445 171.018 81.8083 171.318 81.6879 171.589C81.5587 171.799 81.3896 171.981 81.1901 172.126C80.8334 172.42 80.4453 172.694 80.2454 173.126C79.824 174.027 80.3983 175.086 81.1999 175.562C82.2269 176.166 83.5343 176.026 84.673 175.993C86.0777 175.95 87.483 175.885 88.889 175.797C90.2727 175.713 91.6552 175.608 93.0363 175.48C94.3143 175.362 95.6255 175.284 96.8858 175.031C97.9265 174.819 98.9105 174.37 99.5847 173.527C100.148 172.78 100.5 171.895 100.606 170.966C100.916 168.81 100.469 166.605 100.214 164.47C99.6082 159.455 99.0555 154.429 98.7635 149.378C98.4714 144.38 98.4322 139.355 98.883 134.365C99.3279 129.431 100.269 124.531 101.903 119.849C102.303 118.706 102.743 117.579 103.222 116.47C103.366 116.141 102.879 115.85 102.734 116.186C100.822 120.663 99.5045 125.372 98.8144 130.192C98.0951 135.017 97.8971 139.908 98.0089 144.782C98.1225 149.78 98.5537 154.766 99.0986 159.735C99.3691 162.187 99.667 164.635 99.9689 167.087C100.192 168.906 100.418 171.06 99.4553 172.72C98.9065 173.667 97.9893 174.192 96.9426 174.435C95.6941 174.723 94.375 174.784 93.101 174.901C90.357 175.156 87.6098 175.326 84.8592 175.411C83.7655 175.444 82.3367 175.662 81.3802 174.995C80.9556 174.714 80.6922 174.246 80.6727 173.737C80.6883 173.226 81.098 172.916 81.4567 172.622C81.8153 172.328 82.176 172.001 82.3093 171.526C82.4543 171.011 82.323 170.464 82.2269 169.958C82.0858 169.215 81.9623 168.469 81.8506 167.72C81.3491 164.147 81.0624 160.547 80.9921 156.94C80.8824 152.716 80.9921 148.485 81.2685 144.269C81.5743 139.682 82.0897 135.107 82.8365 130.572C83.5659 126.052 84.5587 121.579 85.8098 117.175C86.1117 116.12 86.4325 115.069 86.7722 114.024L86.4253 114.22C90.5863 115.37 94.8905 115.892 99.179 116.305C100.441 116.427 101.707 116.535 102.974 116.619C103.338 116.66 103.336 116.086 102.976 116.072Z" fill="black"/>
<path d="M121.684 114.198C117.711 115.57 113.524 116.143 109.336 116.229C108.146 116.254 106.954 116.241 105.765 116.201C105.638 116.204 105.527 116.288 105.49 116.409C103.978 121.022 102.951 125.781 102.427 130.607C101.898 135.384 101.715 140.191 101.878 144.994C102.009 149.435 102.387 153.869 102.948 158.277C103.42 161.989 104.02 165.684 104.712 169.361C104.798 169.815 104.908 170.274 104.965 170.733C105.018 171.024 104.981 171.324 104.861 171.595C104.732 171.805 104.562 171.988 104.361 172.132C103.987 172.444 103.577 172.73 103.391 173.196C103.229 173.62 103.245 174.092 103.436 174.504C103.883 175.546 104.957 175.936 106.017 176.009C106.643 176.052 107.274 176.009 107.897 175.997C108.624 175.976 109.349 175.946 110.075 175.913C112.855 175.782 115.631 175.568 118.403 175.27C119.579 175.141 120.829 175.021 121.846 174.361C122.623 173.836 123.204 173.068 123.497 172.177C124.151 170.305 123.849 168.228 123.604 166.311C123.324 164.123 123.016 161.938 122.707 159.755C122.04 155.068 121.36 150.38 120.841 145.674C120.312 140.888 119.935 136.07 119.929 131.256C119.929 126.687 120.245 122.089 121.237 117.619C121.466 116.586 121.733 115.559 122.038 114.545C122.144 114.194 121.597 114.045 121.494 114.394C120.22 118.61 119.645 123.018 119.447 127.405C119.232 132.109 119.447 136.825 119.861 141.517C120.274 146.209 120.884 150.866 121.539 155.523C121.85 157.753 122.174 159.984 122.485 162.216C122.773 164.27 123.12 166.332 123.269 168.406C123.401 170.209 123.348 172.45 121.817 173.698C120.864 174.468 119.573 174.59 118.401 174.717C117.037 174.865 115.67 174.996 114.302 175.109C112.934 175.223 111.562 175.309 110.186 175.366C108.869 175.427 107.532 175.529 106.213 175.478C105.233 175.441 103.826 175.031 103.832 173.796C103.832 173.29 104.224 172.977 104.591 172.687C104.957 172.397 105.341 172.056 105.476 171.566C105.623 171.036 105.486 170.474 105.384 169.949C105.31 169.557 105.237 169.165 105.163 168.773C105.01 167.945 104.86 167.117 104.714 166.287C104.398 164.432 104.104 162.581 103.832 160.735C103.23 156.523 102.789 152.287 102.558 148.038C102.289 143.376 102.322 138.702 102.656 134.045C102.988 129.254 103.78 124.506 105.02 119.867C105.323 118.756 105.658 117.654 106.025 116.56L105.753 116.768C109.982 116.907 114.257 116.703 118.391 115.741C119.554 115.47 120.702 115.138 121.831 114.745C122.178 114.626 122.031 114.079 121.684 114.198Z" fill="black"/>
<path d="M148.324 37.8779C150.092 33.9187 152.002 30.0287 154.055 26.2081C154.629 25.1399 155.662 23.8992 156.799 24.35C157.446 24.6087 157.758 25.33 157.932 26.016C158.531 28.392 158.253 30.9043 157.148 33.0916C156.968 33.4463 156.731 33.8187 156.348 33.9305C155.966 34.0422 155.468 33.6894 155.604 33.315C157.025 32.1194 158.485 30.9003 160.231 30.2711C161.977 29.642 164.1 29.7165 165.502 30.9375C166.903 32.1586 167.124 34.6733 165.65 35.8042C165.441 35.9923 165.165 36.0871 164.884 36.0669C164.275 35.9649 164.196 34.9967 164.688 34.6125C165.18 34.2284 165.882 34.3146 166.452 34.5518C168.053 35.2157 169.077 36.7992 169.027 38.5315C168.976 40.2638 167.861 41.7849 166.225 42.3545C166.064 41.1785 167.82 40.4867 168.773 41.204C169.725 41.9214 169.829 43.3365 169.467 44.4655C168.908 46.204 167.473 47.5505 165.856 48.3992C164.239 49.2479 162.44 49.6653 160.66 50.075L151.752 52.1173C151.148 52.2565 150.247 52.182 150.243 51.5607" fill="#AFAA96"/>
<path d="M55.7316 56.6841C52.8632 53.4788 50.4132 49.9224 48.4404 46.1001C47.4232 44.1225 46.5275 41.9998 46.5157 39.7752C46.504 37.5506 47.5565 35.1947 49.5635 34.2362C51.6313 33.2562 54.2205 33.9912 55.9061 35.5435C57.5917 37.0959 58.5148 39.3067 59.1205 41.5176C59.2479 41.9841 59.3616 42.4976 59.1832 42.9406C59.0048 43.3835 58.4129 43.7011 58.0209 43.4188C57.8446 43.2662 57.724 43.0594 57.6779 42.8308C56.9351 40.2377 58.9813 37.7525 60.8708 35.8277C62.5858 34.0814 64.8652 32.1841 67.1898 32.9485C68.2992 33.3131 69.138 34.2421 69.7535 35.2358C71.7742 38.5031 71.8468 42.6975 70.7335 46.3745C69.6202 50.0515 67.423 53.2972 65.1004 56.3568C64.091 57.6896 62.9444 59.0714 61.3451 59.5536C59.7457 60.0357 57.6309 59.1184 57.5192 57.4485" fill="#AFAA96"/>
<path d="M73.0992 77.4012C74.336 74.4886 75.6688 71.58 77.568 69.032C78.1062 68.3122 78.6958 67.6323 79.332 66.9975C79.4191 66.9052 79.435 66.7666 79.3712 66.657C79.3073 66.5474 79.1789 66.4929 79.0557 66.5232C74.4822 67.4348 70.0649 69.004 65.9413 71.1821C63.88 72.27 61.9016 73.5082 60.0221 74.8865C58.1837 76.1978 56.477 77.6846 54.9261 79.3259C53.4483 80.937 52.1821 82.7579 51.3844 84.8002C50.961 85.8821 50.5886 87.1326 50.9924 88.2772C51.3413 89.2964 52.1841 90.0412 53.0543 90.6116C56.6489 93.0028 61.4019 92.9146 65.3376 91.4759C66.4701 91.0562 67.564 90.5387 68.6069 89.9295C68.8205 89.806 69.1949 89.6786 69.2831 89.4356C69.3227 89.2865 69.3496 89.1344 69.3635 88.9809C69.3974 88.7992 69.4327 88.6169 69.4693 88.434C69.5947 87.8107 69.7378 87.1894 69.8927 86.572C70.5557 84.057 71.386 81.5891 72.3779 79.1848C72.6171 78.5915 72.8621 77.9996 73.1129 77.409C73.2541 77.0778 72.766 76.7877 72.6249 77.1229C71.3274 80.1785 70.1357 83.289 69.3243 86.5132C69.0949 87.4285 68.897 88.3537 68.7363 89.2847L68.8656 89.1161C65.7551 91.0134 62.1918 92.1992 58.5109 91.8738C56.8097 91.7401 55.1616 91.2185 53.6933 90.3489C52.9583 89.9021 52.2135 89.3689 51.7646 88.6104C51.255 87.7578 51.3491 86.7719 51.6215 85.8664C52.6427 82.4286 55.1789 79.6101 57.8504 77.3267C60.7176 74.8964 63.8711 72.8256 67.2408 71.1605C70.6152 69.4799 74.1773 68.2061 77.8522 67.366C78.303 67.2641 78.7558 67.168 79.2105 67.0779L78.9341 66.6035C76.6703 68.8752 75.0788 71.6995 73.7401 74.5945C73.3481 75.4333 72.9836 76.2801 72.6229 77.1307C72.472 77.4463 72.9561 77.7363 73.0992 77.4012Z" fill="black"/>
<path d="M162.35 86.039C160.768 79.6337 156.184 74.3398 150.645 70.9313C147.397 68.9341 143.785 67.5464 140.11 66.6037C138.236 66.1299 136.339 65.7557 134.426 65.4825C133.473 65.344 132.517 65.2251 131.558 65.1258C131.369 65.1327 131.18 65.0986 131.006 65.0258C130.86 64.8902 130.732 64.7375 130.623 64.5711C130.333 64.2379 130.035 63.9165 129.708 63.6147C128.638 62.6053 127.283 61.6174 125.849 61.2176C125.049 60.9961 124.214 60.8589 123.405 60.6825C120.5 60.0455 117.525 59.7711 114.565 59.581C106.247 59.0373 97.8942 59.6521 89.7456 61.4077C86.2176 62.178 82.6896 63.3226 79.8868 65.6903C77.276 67.8992 75.4768 70.9019 74.0185 73.9536C72.3911 77.3096 71.0153 80.7818 69.9025 84.3416C68.7971 87.9598 68.068 91.7799 68.3718 95.5764C68.6318 99.0755 69.8948 102.426 72.0095 105.225C73.9989 107.834 76.6175 109.929 79.4889 111.497C82.8209 113.312 86.4959 114.406 90.2062 115.12C94.1575 115.882 98.1932 116.296 102.205 116.582C109.879 117.146 117.85 116.846 124.914 113.483C127.981 112.023 130.815 109.998 133.022 107.407C135.355 104.663 136.942 101.354 137.84 97.8794C138.272 96.1967 138.558 94.4799 138.695 92.7481L138.269 92.9911C141.864 95.5156 146.035 97.2188 150.464 97.3835C152.555 97.4804 154.644 97.1654 156.613 96.4564C158.496 95.7567 160.396 94.663 161.587 93.0048C163.042 90.9821 162.901 88.3538 162.35 86.0429C162.266 85.6882 161.719 85.8469 161.803 86.1938C162.287 88.2185 162.465 90.5058 161.34 92.3561C160.298 94.0711 158.361 95.1922 156.531 95.8841C152.791 97.2992 148.597 97.017 144.855 95.7684C142.608 94.9912 140.486 93.8913 138.555 92.5031C138.359 92.3698 138.146 92.554 138.128 92.7481C137.838 96.3192 136.942 99.8648 135.276 103.05C133.675 106.103 131.369 108.73 128.55 110.713C122.534 114.965 115.075 116.274 107.844 116.248C103.832 116.233 99.82 115.868 95.8392 115.398C91.9937 114.945 88.1442 114.294 84.4712 113.046C78.1992 110.909 72.182 106.65 69.9123 100.188C67.38 92.9813 69.9006 85.1394 72.6838 78.4009C73.9754 75.2649 75.3474 72.1132 77.329 69.3516C78.2881 67.9884 79.4372 66.7694 80.7413 65.7315C82.1977 64.6287 83.8198 63.764 85.5472 63.1697C89.1713 61.8683 93.0874 61.2529 96.8898 60.7511C104.968 59.6847 113.152 59.7111 121.223 60.8295C121.997 60.9373 122.756 61.1255 123.52 61.294C124.249 61.4528 125.006 61.5723 125.723 61.7762C127.24 62.2074 128.652 63.3226 129.728 64.4339C130.002 64.7181 130.265 65.0219 130.512 65.3179C130.627 65.459 130.69 65.5766 130.862 65.6276C131.092 65.6719 131.325 65.6955 131.558 65.6981C132.521 65.7974 133.482 65.9183 134.439 66.0607C138.163 66.6134 141.858 67.4994 145.355 68.9145C151.54 71.4194 157.138 75.7745 160.182 81.8211C160.884 83.2145 161.426 84.6827 161.799 86.1978C161.891 86.5427 162.436 86.3938 162.35 86.039Z" fill="black"/>
<path d="M104.491 94.2024L102.344 85.3824C102.099 84.3749 101.837 83.3303 101.18 82.5267C100.028 81.1155 98.003 80.8273 96.1802 80.8215C92.9325 80.8099 89.7074 81.3623 86.6487 82.4541C85.8157 82.7521 84.9122 83.1715 84.5946 83.9986C84.3751 84.5651 84.4849 85.2001 84.5946 85.7959C86.1553 93.7806 88.1901 101.665 90.6883 109.408C91.0078 110.4 91.3704 111.443 92.1798 112.099C92.8306 112.626 93.6812 112.828 94.5044 112.981C97.1831 113.475 99.915 113.618 102.631 113.405C103.908 113.303 105.249 113.095 106.257 112.299C107.517 111.301 107.983 109.555 107.825 107.95C107.666 106.345 107.001 104.847 106.337 103.383" fill="#AFAA96"/>
<path d="M104.765 94.12C104.03 91.0996 103.307 88.0753 102.56 85.0569C102.256 83.8339 101.847 82.5893 100.829 81.772C99.9317 81.0526 98.8028 80.7449 97.6777 80.6116C96.349 80.4829 95.0106 80.4895 93.6832 80.6312C92.2151 80.7591 90.7591 81.0003 89.3281 81.3525C88.6094 81.5289 87.8986 81.7341 87.1956 81.968C86.5988 82.1422 86.0215 82.3774 85.4728 82.6696C84.9816 82.9287 84.5891 83.3418 84.3556 83.8456C84.0949 84.4787 84.2027 85.1686 84.3282 85.8174C85.4806 91.7876 86.9232 97.7068 88.6127 103.546C89.0269 104.983 89.4575 106.412 89.9044 107.834C90.12 108.526 90.3316 109.222 90.5668 109.906C90.7473 110.491 91.0064 111.049 91.3371 111.564C91.6852 112.075 92.1664 112.482 92.7287 112.74C93.3356 112.995 93.9725 113.172 94.624 113.265C96.1133 113.532 97.6199 113.692 99.132 113.743C100.571 113.806 102.013 113.753 103.444 113.585C104.681 113.426 105.947 113.069 106.835 112.142C108.665 110.233 108.281 107.346 107.409 105.098C107.162 104.461 106.882 103.84 106.602 103.218C106.451 102.887 105.963 103.173 106.112 103.502C107.105 105.698 108.242 108.308 107.141 110.686C106.658 111.731 105.731 112.504 104.616 112.791C103.342 113.163 101.951 113.183 100.631 113.208C99.2121 113.228 97.7931 113.151 96.3841 112.979C95.6746 112.893 94.9651 112.783 94.2634 112.64C93.6729 112.543 93.1051 112.339 92.5876 112.038C91.5488 111.372 91.2019 110.078 90.8491 108.965C90.4113 107.602 89.9893 106.236 89.5829 104.867C87.9444 99.3551 86.5397 93.7815 85.3689 88.1459C85.22 87.4311 85.0749 86.7125 84.9338 85.9899C84.8103 85.3646 84.6143 84.6453 84.8848 84.0299C85.0965 83.5477 85.5512 83.2459 86.0059 83.0126C86.58 82.7498 87.1737 82.5322 87.7817 82.3619C90.4563 81.5239 93.2422 81.095 96.045 81.0899C97.1544 81.0899 98.2892 81.1683 99.3359 81.5622C100.399 81.9544 101.235 82.7967 101.619 83.8633C101.833 84.4732 102.008 85.0957 102.145 85.7272L102.656 87.8244L103.718 92.1894L104.224 94.2768C104.31 94.6315 104.857 94.4728 104.771 94.1258L104.765 94.12Z" fill="black"/>
<path d="M70.3024 101.872C64.8046 106.105 57.5957 107.456 51.0944 104.559C43.3308 101.1 37.0118 89.2083 39.3344 81.039C40.6613 76.3801 44.0227 72.023 43.1309 67.2132C43.1018 67.0468 43.0405 66.8877 42.9506 66.7447C42.49 66.0548 41.6119 66.386 41.022 66.7976C40.2847 67.3174 39.6248 67.9391 39.062 68.644C38.955 68.394 38.8174 68.1583 38.6523 67.9423C36.6695 65.1709 34.3772 62.6346 31.8198 60.3826C31.3754 59.9805 30.7468 59.8534 30.1812 60.0513C29.5364 60.2885 29.4638 60.8353 29.4599 61.3332C29.456 62.7571 29.8831 64.1489 30.6849 65.3257C29.587 64.4388 28.2607 63.8803 26.859 63.7146C26.3756 63.6639 25.8973 63.8489 25.5737 64.2117C25.2502 64.5744 25.1209 65.0707 25.2263 65.5452C25.4623 66.5868 26.0132 67.5304 26.8041 68.248C26.0317 67.9634 25.2095 67.8387 24.3874 67.8815C23.672 67.9207 22.9116 68.1069 22.6234 68.987C22.4428 69.5901 22.5276 70.2416 22.8567 70.7784C23.5584 71.9877 24.9108 72.5934 25.6987 73.7086C26.4611 74.7886 26.5905 76.1958 27.2138 77.362C28.0977 79.0143 29.9048 80.059 30.6457 81.7799C31.1926 83.05 31.0769 84.4886 31.0534 85.8704C30.8692 97.356 38.715 108.528 49.5813 112.25C58.0622 115.157 67.874 113.348 75.0613 108.046C73.0712 106.333 71.4518 104.232 70.3024 101.872Z" fill="black"/>
<path d="M70.1593 101.627C66.2746 104.604 61.3922 106.231 56.4844 105.723C54.1796 105.496 51.9478 104.79 49.9321 103.65C48.2567 102.655 46.7464 101.406 45.4555 99.9471C42.6375 96.8341 40.6431 93.0656 39.6538 88.9848C39.1836 87.1005 39.0326 85.1507 39.207 83.2165C39.4382 80.9723 40.3555 78.879 41.2493 76.8308C42.2293 74.5709 43.2838 72.2679 43.5209 69.7748C43.5788 69.1732 43.5788 68.5674 43.5209 67.9657C43.466 67.3954 43.4288 66.7172 42.9604 66.3174C42.0764 65.5628 40.8632 66.5016 40.1772 67.0759C39.6943 67.4831 39.2519 67.936 38.8561 68.4283L39.3285 68.5537C39.0717 67.9344 38.6209 67.4013 38.2191 66.8701C37.8173 66.3389 37.3822 65.7823 36.9451 65.2551C36.071 64.1967 35.1504 63.1814 34.1835 62.2092C33.7052 61.7271 33.2166 61.2573 32.7174 60.8C32.2607 60.3805 31.8099 59.8827 31.1886 59.722C30.6378 59.563 30.044 59.687 29.603 60.0532C29.2521 60.3786 29.1757 60.8607 29.1698 61.3174C29.1684 62.7913 29.6087 64.2318 30.434 65.453L30.8789 65.11C30.2599 64.6112 29.5703 64.2069 28.8327 63.9105C28.4661 63.7642 28.0887 63.6468 27.7037 63.5597C27.3449 63.4607 26.9745 63.41 26.6022 63.4087C25.9665 63.4425 25.3964 63.8111 25.1048 64.377C24.7833 65.014 24.9186 65.6863 25.1616 66.3252C25.4714 67.1377 25.9667 67.8666 26.6081 68.4538L26.8825 67.9795C26.075 67.6881 25.2172 67.5614 24.36 67.6071C23.7935 67.6404 23.2055 67.7678 22.792 68.1813C22.2824 68.689 22.1589 69.4769 22.3118 70.157C22.4705 70.8685 22.9409 71.4683 23.4584 71.9622C23.9758 72.4561 24.5109 72.8363 24.993 73.3205C25.508 73.8568 25.8923 74.5048 26.1161 75.2138C26.365 75.9331 26.5571 76.6721 26.9001 77.3581C27.2241 77.9718 27.6332 78.5366 28.1153 79.0358C29.06 80.0707 30.1851 81.0233 30.581 82.4207C30.9985 83.9005 30.7437 85.4999 30.7888 87.0169C30.8743 89.6963 31.364 92.3473 32.2411 94.8805C33.9996 99.9671 37.1268 104.47 41.2787 107.895C43.3358 109.59 45.6323 110.971 48.0936 111.993C50.7782 113.087 53.6269 113.724 56.5216 113.877C59.4816 114.036 62.4484 113.735 65.3161 112.985C68.1743 112.246 70.9037 111.076 73.4109 109.518C74.0264 109.136 74.6261 108.734 75.2102 108.297C75.285 108.252 75.3351 108.175 75.3462 108.088C75.3573 108.001 75.3281 107.914 75.2671 107.852C73.3026 106.148 71.7026 104.066 70.563 101.729C70.4062 101.399 69.9182 101.686 70.0731 102.015C71.2336 104.395 72.8622 106.516 74.8613 108.252L74.9182 107.807C70.2481 111.234 64.6481 113.164 58.8579 113.342C55.9772 113.435 53.1009 113.051 50.3457 112.205C47.8477 111.42 45.4856 110.256 43.3426 108.751C41.2052 107.255 39.2868 105.468 37.6429 103.442C36.0023 101.425 34.6421 99.1962 33.5994 96.815C32.5412 94.4318 31.8366 91.9068 31.5081 89.3199C31.3549 87.993 31.2986 86.6567 31.3395 85.3215C31.3768 83.7986 31.3532 82.2502 30.4948 80.9292C29.7637 79.8081 28.6798 78.9849 27.888 77.9127C27.4694 77.3213 27.1509 76.6651 26.9452 75.9704C26.7502 75.2679 26.4877 74.5859 26.1612 73.9339C25.4772 72.7109 24.1718 72.0974 23.3368 71.0096C22.888 70.4216 22.6116 69.6259 22.9448 68.9183C23.1996 68.3793 23.7622 68.2107 24.3168 68.1735C25.1335 68.1263 25.9512 68.2463 26.7198 68.5263C26.8437 68.5592 26.9744 68.5057 27.0396 68.3953C27.1048 68.2849 27.0887 68.1447 27.0001 68.052C26.3928 67.4986 25.9327 66.8028 25.6614 66.0273C25.436 65.3687 25.3674 64.6279 26.022 64.1869C26.2976 64.0127 26.6279 63.947 26.9491 64.0026C27.3876 64.0612 27.8195 64.1616 28.2388 64.3025C29.0554 64.5708 29.8175 64.983 30.4889 65.5197C30.7182 65.7039 31.1278 65.4687 30.9338 65.1767C30.2614 64.1945 29.8562 63.0544 29.7578 61.8682C29.7304 61.4762 29.6657 60.9411 29.893 60.5961C30.1616 60.1904 30.7809 60.1669 31.1945 60.3237C31.446 60.4389 31.6739 60.5997 31.8668 60.798C32.102 61.0077 32.3332 61.2194 32.5645 61.435C33.014 61.8545 33.4544 62.2824 33.8856 62.7188C34.7284 63.5708 35.5352 64.456 36.3062 65.3746C36.757 65.9104 37.1947 66.4572 37.6194 67.0151C37.8284 67.2895 38.0355 67.5672 38.2407 67.8481C38.455 68.1147 38.6385 68.4047 38.7875 68.7125C38.86 68.885 39.1109 69.0241 39.2599 68.8379C39.6747 68.3222 40.141 67.85 40.6515 67.4287C41.0435 67.0994 41.5198 66.7192 42.049 66.6447C42.733 66.5349 42.8624 67.1935 42.931 67.7286C43.0039 68.3137 43.0197 68.9045 42.978 69.4926C42.8114 71.9877 41.7295 74.3259 40.7416 76.5858C39.842 78.6497 38.9345 80.7391 38.666 82.9931C38.4632 84.9209 38.5831 86.869 39.0208 88.7574C39.9525 92.8375 41.8644 96.629 44.5911 99.804C45.8584 101.317 47.3393 102.638 48.9874 103.724C50.8654 104.915 52.9614 105.72 55.1535 106.094C59.9438 106.942 64.8967 105.77 68.9637 103.154C69.4733 102.826 69.9653 102.477 70.4454 102.109C70.7297 101.897 70.4494 101.405 70.1593 101.627Z" fill="black"/>
<path d="M55.9316 56.488C53.7156 54.0064 51.7463 51.315 50.0516 48.452C49.1831 47.0233 48.4162 45.5352 47.7565 43.9989C47.141 42.4995 46.6941 40.8785 46.8078 39.2439C46.8819 37.9102 47.3813 36.6353 48.2327 35.6061C49.128 34.5708 50.4506 34.006 51.8176 34.0754C53.2276 34.1579 54.5675 34.7186 55.6161 35.6649C56.7411 36.6685 57.5388 37.9934 58.1033 39.3772C58.3836 40.074 58.6225 40.7867 58.8187 41.5116C58.9285 41.9036 59.0578 42.3368 58.9441 42.7405C58.8736 42.9953 58.6207 43.2658 58.3307 43.2384C57.9975 43.207 57.923 42.7072 57.8701 42.4544C57.8016 42.1073 57.7818 41.7524 57.8113 41.3999C57.884 40.6854 58.1014 39.9932 58.4502 39.3654C59.1735 37.9934 60.2554 36.8292 61.3491 35.7453C62.4173 34.6928 63.6481 33.6011 65.1279 33.1973C68.3502 32.3153 70.2063 36.0256 70.8119 38.5912C71.5313 41.6175 71.0746 44.8083 69.9672 47.6817C68.7912 50.7138 66.9409 53.4323 64.9947 56.0117C64.1244 57.1681 63.1875 58.3931 61.8587 59.0458C60.7963 59.5691 59.4537 59.526 58.511 58.7557C58.1016 58.4383 57.8397 57.9675 57.7858 57.4523C57.7564 57.0936 57.1978 57.0897 57.2193 57.4523C57.3252 58.7616 58.4463 59.6495 59.6752 59.8905C61.1354 60.1806 62.478 59.524 63.5423 58.5577C64.1268 58.0034 64.6613 57.3987 65.1397 56.7506C65.6767 56.0529 66.1994 55.346 66.7077 54.6299C67.7423 53.1967 68.6712 51.6901 69.487 50.1219C71.0236 47.1035 71.9762 43.7401 71.6626 40.3317C71.5323 38.6964 71.0743 37.104 70.3161 35.6493C69.583 34.2773 68.4815 32.9053 66.8841 32.5721C65.2867 32.2389 63.7187 33.0307 62.4702 33.995C61.1469 35.0355 59.9614 36.2401 58.9422 37.5799C57.9877 38.8245 57.1488 40.3356 57.2448 41.9565C57.284 42.5994 57.4212 43.6382 58.1954 43.7872C58.9696 43.9361 59.5125 43.2109 59.5557 42.5269C59.5558 42.0904 59.4822 41.6571 59.3381 41.2451C59.2257 40.8452 59.1022 40.4493 58.9677 40.0573C58.7008 39.2732 58.369 38.5127 57.9759 37.7837C57.2135 36.3941 56.1492 35.1377 54.7517 34.3596C53.4405 33.6285 51.8627 33.2894 50.3829 33.6442C48.956 33.9852 47.8015 34.9907 47.1038 36.2608C45.4025 39.3595 46.5256 42.8973 47.9936 45.8413C49.6096 49.0543 51.5665 52.0843 53.8305 54.8788C54.3819 55.5622 54.949 56.2312 55.5318 56.8859C55.7748 57.1583 56.1727 56.7565 55.9238 56.4939L55.9316 56.488Z" fill="black"/>
<path d="M142.121 52.5505L139.747 47.3878C138.861 45.4611 137.971 43.2032 138.912 41.3001C139.5 40.0986 140.711 39.3401 141.874 38.6639C142.773 38.1445 143.704 37.6368 144.726 37.4487C145.747 37.2605 146.891 37.4487 147.638 38.1699C148.21 38.7207 148.481 39.5067 148.722 40.2632C149.587 43.0026 150.277 45.794 150.79 48.6207C151.129 50.4885 151.333 52.5995 150.184 54.1087C149.036 55.6179 146.954 55.9844 145.069 56.0491C144.043 56.0824 142.679 55.7511 142.66 54.7261" fill="black"/>
<path d="M142.364 52.4073L140.114 47.5073C139.457 46.0765 138.742 44.5321 138.797 42.9209C138.82 42.1806 139.067 41.4647 139.504 40.8669C139.943 40.3219 140.474 39.8576 141.072 39.4949C141.697 39.0843 142.345 38.7093 143.012 38.3718C143.69 37.9948 144.437 37.7569 145.208 37.6721C145.889 37.6084 146.573 37.7717 147.152 38.1366C147.764 38.5482 148.079 39.2479 148.312 39.9202C148.871 41.5489 149.314 43.2267 149.718 44.8986C150.134 46.5054 150.457 48.1349 150.686 49.779C150.852 51.151 150.854 52.6641 150.031 53.8421C149.265 54.9397 147.93 55.4101 146.664 55.6198C146.029 55.7329 145.384 55.7809 144.739 55.7629C144.234 55.7433 143.638 55.6453 143.238 55.3081C143.058 55.1651 142.95 54.9501 142.942 54.7201C142.926 54.3575 142.354 54.3556 142.375 54.7201C142.436 56.0608 144.071 56.3626 145.139 56.3234C146.57 56.2685 148.101 56.0569 149.326 55.265C152.287 53.3521 151.268 49.3439 150.66 46.496C150.268 44.6431 149.797 42.8099 149.245 40.9962C149.006 40.2024 148.791 39.3596 148.365 38.6442C147.982 37.9899 147.369 37.501 146.646 37.2722C145.023 36.7528 143.391 37.4682 141.993 38.2699C140.692 39.0068 139.249 39.8516 138.614 41.2726C137.893 42.8641 138.312 44.6379 138.924 46.1922C139.616 47.9464 140.474 49.6437 141.262 51.3587L141.876 52.6935C142.029 53.0228 142.517 52.7366 142.364 52.4073Z" fill="black"/>
<path d="M148.569 38.0209C149.484 35.9681 150.438 33.935 151.433 31.9214C151.923 30.9283 152.421 29.9392 152.928 28.954C153.42 28.0014 153.892 27.0253 154.439 26.1022C154.816 25.4691 155.431 24.589 156.246 24.5342C157.166 24.4773 157.518 25.5338 157.691 26.2492C158.144 28.1903 158.002 30.2229 157.283 32.0821C157.134 32.5397 156.918 32.9729 156.642 33.3679C156.542 33.5237 156.38 33.6303 156.197 33.6619C156.088 33.6619 155.852 33.5796 155.86 33.4365C155.86 33.4482 155.843 33.4502 155.929 33.4012C155.975 33.369 156.018 33.3329 156.058 33.2934L156.319 33.0758C156.515 32.9132 156.711 32.7505 156.907 32.5917C157.299 32.2722 157.716 31.9626 158.142 31.6764C159.665 30.6474 161.486 29.8948 163.355 30.2397C164.198 30.374 164.973 30.7818 165.56 31.4C166.034 31.9427 166.316 32.6258 166.364 33.3444C166.435 34.0359 166.233 34.7278 165.801 35.273C165.605 35.5004 165.123 35.9825 164.8 35.7356C164.604 35.5886 164.614 35.2514 164.696 35.0496C164.843 34.6909 165.284 34.6125 165.639 34.638C166.08 34.6895 166.503 34.8461 166.872 35.0946C167.58 35.5494 168.128 36.2141 168.44 36.9958C169.062 38.6016 168.559 40.4253 167.203 41.4862C166.881 41.7427 166.518 41.9447 166.131 42.084L166.487 42.3564C166.417 41.7312 166.962 41.3314 167.526 41.2236C168.218 41.0922 168.79 41.4607 169.094 42.0742C169.853 43.5854 168.898 45.4356 167.854 46.541C166.521 47.9503 164.706 48.7147 162.871 49.2321C160.77 49.8201 158.616 50.2494 156.489 50.7374L152.848 51.5743C152.338 51.6919 151.805 51.8781 151.28 51.8938C151.045 51.8938 150.531 51.8938 150.513 51.5626C150.496 51.2 149.925 51.198 149.947 51.5626C149.994 52.4642 151.078 52.5426 151.762 52.4034C152.983 52.1623 154.196 51.8448 155.41 51.5665C157.844 51.0079 160.31 50.51 162.718 49.8613C164.784 49.3046 166.856 48.4677 168.332 46.8586C169.525 45.5532 170.464 43.4776 169.569 41.7626C169.167 40.9315 168.246 40.4865 167.346 40.6885C166.562 40.8531 165.823 41.5019 165.921 42.3604C165.939 42.5289 166.088 42.7034 166.278 42.6348C168.138 41.9664 169.471 40.0319 169.269 38.0366C169.163 37.0385 168.737 36.1014 168.055 35.3651C167.405 34.6595 166.399 34.0206 165.404 34.0735C164.934 34.0692 164.493 34.2992 164.228 34.687C164.038 35.0153 164.004 35.4112 164.135 35.7669C164.274 36.1681 164.678 36.4148 165.098 36.3549C165.578 36.2922 165.99 35.9296 166.274 35.5709C167.342 34.1989 167.001 32.0606 165.807 30.8826C164.32 29.4146 161.909 29.3558 160.049 30.0476C158.98 30.469 157.978 31.0442 157.076 31.7548C156.605 32.1115 156.15 32.4839 155.704 32.8642C155.508 33.0288 155.28 33.1621 155.274 33.4522C155.276 33.678 155.381 33.8907 155.558 34.0304C155.908 34.3222 156.415 34.3263 156.77 34.0402C157.191 33.7266 157.417 33.1934 157.62 32.723C158.086 31.6544 158.371 30.5158 158.463 29.3538C158.561 28.193 158.458 27.0239 158.157 25.8983C157.914 25.0006 157.373 24.0265 156.321 23.9971C155.329 23.9716 154.557 24.8674 154.067 25.6239C153.745 26.1198 153.479 26.6588 153.21 27.1802C152.901 27.7682 152.594 28.3562 152.289 28.9442C151.09 31.2792 149.941 33.6403 148.844 36.0276C148.582 36.6025 148.321 37.1788 148.06 37.7563C147.913 38.0856 148.401 38.3737 148.55 38.0425L148.569 38.0209Z" fill="black"/>
<path d="M110.99 24.54C106.809 24.243 102.608 24.4589 98.4793 25.1829C96.6526 25.5044 94.8063 25.9042 93.1383 26.7509C91.6047 27.5293 90.3159 28.7163 89.4143 30.1809C87.3641 33.4718 87.2583 37.4623 87.4974 41.2157C87.5641 42.2232 87.6209 43.2384 87.7463 44.24C87.8581 45.1259 88.0737 46.004 88.5774 46.7488C89.4123 47.9875 90.7883 48.7245 92.2014 49.1008C92.9441 49.2989 93.7054 49.4185 94.4731 49.4575C95.4648 49.5104 96.4683 49.4575 97.4542 49.5986C99.0894 49.8328 100.514 50.8354 101.286 52.2956C101.461 52.6322 101.596 52.9881 101.688 53.356C101.723 53.4782 101.835 53.5627 101.962 53.5637C103.138 53.4716 103.199 52.1153 103.43 51.2313C103.56 50.7452 103.748 50.22 104.281 50.069C104.742 49.9358 105.261 49.9436 105.741 49.8985L107.29 49.7535C109.15 49.5771 111.014 49.4418 112.87 49.1988C114.438 49.0028 116.006 48.6833 117.448 48.0228C118.852 47.4079 120.037 46.3831 120.849 45.0828C121.647 43.7716 121.999 42.2467 122.117 40.7296C122.211 39.1323 122.145 37.5296 121.921 35.9453C121.725 34.3067 121.515 32.6348 120.992 31.0629C120.489 29.4718 119.495 28.0805 118.154 27.088C117.449 26.592 116.705 26.1523 115.931 25.7729C115.128 25.3593 114.314 24.9203 113.442 24.6674C113 24.5368 112.541 24.4708 112.08 24.4714C111.932 24.4837 111.819 24.6068 111.819 24.7547C111.819 24.9025 111.932 25.0256 112.08 25.0379C112.993 25.0379 113.844 25.3711 114.657 25.765C115.42 26.1355 116.18 26.5196 116.909 26.9528C117.647 27.3692 118.319 27.8908 118.906 28.5012C119.43 29.0803 119.852 29.7427 120.157 30.4612C120.804 31.9508 121.039 33.5972 121.256 35.1887C121.488 36.7066 121.603 38.2398 121.603 39.7751C121.578 41.2451 121.376 42.7524 120.751 44.0871C120.126 45.4278 119.086 46.532 117.785 47.2368C116.46 47.964 114.961 48.3207 113.473 48.552C111.747 48.8205 109.996 48.944 108.258 49.1008L105.357 49.3752C104.622 49.4438 103.812 49.434 103.328 50.0788C103.021 50.4846 102.901 51 102.793 51.4881C102.701 51.9036 102.646 52.421 102.38 52.7719C102.282 52.9068 102.13 52.9915 101.964 53.0032L102.237 53.2109C101.841 51.7103 100.85 50.4361 99.4926 49.6829C97.8501 48.7794 96.0019 49.0165 94.2006 48.8754C92.7581 48.7637 91.2606 48.3756 90.0846 47.5034C89.507 47.0809 89.0447 46.5202 88.7401 45.8727C88.3324 44.9848 88.2775 43.9793 88.2011 43.0209C87.8992 39.2518 87.6131 35.2456 89.232 31.7117C89.9239 30.2064 90.9411 28.8344 92.3112 27.8858C93.7871 26.8646 95.5354 26.3472 97.2739 25.9826C101.28 25.1592 105.372 24.834 109.457 25.0144C109.967 25.0359 110.475 25.0653 110.984 25.1026C111.349 25.128 111.347 24.5616 110.984 24.5361L110.99 24.54Z" fill="black"/>
<path d="M95.6196 36.9547C95.3152 37.027 95.0796 37.2678 95.0139 37.5737C94.9482 37.8796 95.0641 38.196 95.312 38.3869C95.5598 38.5778 95.8953 38.6093 96.1743 38.4678C96.3454 38.3705 96.4885 38.2308 96.5898 38.0621C96.7776 37.8106 96.8377 37.4861 96.7525 37.184C96.6427 36.8939 96.2605 36.7077 96.0057 36.8841" fill="#AFAA96"/>
<path d="M95.5451 36.692C95.1261 36.8079 94.8106 37.1539 94.7337 37.5818C94.6512 38.0267 94.8639 38.4742 95.2609 38.6912C95.6598 38.9186 96.1574 38.8773 96.5134 38.5873C96.9264 38.2597 97.1333 37.7368 97.0563 37.2153C96.9544 36.7116 96.3272 36.3392 95.8626 36.6391C95.7755 36.6902 95.7222 36.7839 95.7229 36.885C95.7235 36.986 95.7781 37.0791 95.8659 37.129C95.9538 37.1789 96.0616 37.1782 96.1488 37.1271C96.1645 37.1198 96.1795 37.1113 96.1939 37.1016C96.137 37.1016 96.2174 37.0801 96.1939 37.1016C96.2069 37.1003 96.22 37.1003 96.2331 37.1016H96.1998C96.2095 37.1006 96.2194 37.1006 96.2292 37.1016H96.2801C96.2684 37.1016 96.2213 37.0879 96.2684 37.1016L96.3076 37.1134C96.3585 37.1251 96.2703 37.0879 96.3291 37.1134C96.3579 37.1281 96.3854 37.1451 96.4114 37.1643C96.3566 37.1251 96.4369 37.1937 96.4506 37.2075C96.4644 37.2212 96.4702 37.2467 96.4506 37.2075C96.4506 37.2212 96.4683 37.2329 96.4742 37.2447C96.48 37.2565 96.5075 37.3094 96.4898 37.2682C96.4722 37.2271 96.5016 37.3113 96.5036 37.3211C96.5055 37.3309 96.5153 37.3662 96.5192 37.3897C96.5192 37.3407 96.5192 37.3897 96.5192 37.3897C96.5222 37.4361 96.5222 37.4826 96.5192 37.5289C96.5192 37.5132 96.529 37.4819 96.5192 37.5289C96.5145 37.552 96.5086 37.5749 96.5016 37.5975C96.5016 37.621 96.4898 37.6426 96.482 37.6661C96.4742 37.6896 96.4506 37.7484 96.4683 37.7053C96.4337 37.7826 96.3924 37.8567 96.3448 37.9268L96.3134 37.9738C96.2605 38.0463 96.3311 37.9542 96.2958 37.9934C96.2631 38.0336 96.2278 38.0716 96.19 38.1071L96.1488 38.1424L96.1292 38.1581L96.0253 38.2169C96.041 38.2169 96.0782 38.1875 96.0253 38.2169L95.9744 38.2325L95.9332 38.2423C95.8666 38.2619 95.992 38.2423 95.9234 38.2423C95.8875 38.2443 95.8515 38.2443 95.8156 38.2423C95.7882 38.2423 95.7215 38.2286 95.7842 38.2423L95.6784 38.2169L95.6353 38.2031C95.6078 38.2031 95.5804 38.1777 95.6235 38.2031C95.5905 38.1881 95.5584 38.1711 95.5275 38.1522L95.4902 38.1287C95.4334 38.0934 95.5157 38.1561 95.4902 38.1287C95.4648 38.1012 95.4412 38.0875 95.4197 38.064L95.3903 38.0307C95.353 37.9915 95.4118 38.0718 95.3766 38.0111L95.3295 37.9268C95.3295 37.9523 95.357 37.9719 95.3295 37.9268C95.3234 37.9094 95.3182 37.8918 95.3138 37.8739C95.3138 37.8484 95.2962 37.7621 95.3001 37.8307C95.3001 37.7896 95.3001 37.7504 95.3001 37.7112C95.3001 37.6426 95.3001 37.672 95.3001 37.7112C95.3021 37.6893 95.3061 37.6677 95.3119 37.6465C95.3205 37.6107 95.331 37.5754 95.3432 37.5407C95.3217 37.572 95.3628 37.476 95.3432 37.5407C95.3648 37.5093 95.3668 37.4936 95.3785 37.4701L95.4393 37.378C95.404 37.427 95.4295 37.3937 95.4393 37.378L95.4922 37.3231L95.5334 37.2859C95.4981 37.3192 95.5236 37.2859 95.5471 37.2859C95.5706 37.2859 95.6098 37.2506 95.6412 37.2329C95.5863 37.2623 95.6274 37.2329 95.6412 37.2329L95.7156 37.2114C95.8575 37.1625 95.9369 37.0117 95.897 36.8671C95.8571 36.7224 95.7116 36.6338 95.5647 36.6645L95.5451 36.692Z" fill="#AFAA96"/>
<path d="M102.376 36.9547C102.071 37.027 101.836 37.2678 101.77 37.5737C101.704 37.8796 101.82 38.196 102.068 38.3869C102.316 38.5778 102.651 38.6093 102.93 38.4678C103.101 38.3705 103.245 38.2308 103.346 38.0621C103.534 37.8106 103.594 37.4861 103.509 37.184C103.399 36.8939 103.017 36.7077 102.762 36.8841" fill="#AFAA96"/>
<path d="M102.301 36.692C101.882 36.8079 101.567 37.1539 101.49 37.5818C101.407 38.0267 101.62 38.4742 102.017 38.6912C102.416 38.9186 102.914 38.8773 103.269 38.5873C103.682 38.2597 103.889 37.7368 103.812 37.2153C103.71 36.7116 103.083 36.3392 102.619 36.6391C102.532 36.6902 102.478 36.7839 102.479 36.885C102.48 36.986 102.534 37.0791 102.622 37.129C102.71 37.1789 102.818 37.1782 102.905 37.1271C102.921 37.1198 102.936 37.1113 102.95 37.1016C102.893 37.1016 102.974 37.0801 102.95 37.1016C102.963 37.1003 102.976 37.1003 102.989 37.1016H102.954C102.964 37.1006 102.975 37.1006 102.985 37.1016H103.036C103.024 37.1016 102.977 37.0879 103.024 37.1016L103.064 37.1134C103.115 37.1251 103.026 37.0879 103.085 37.1134C103.114 37.1281 103.142 37.1451 103.168 37.1643C103.113 37.1251 103.193 37.1937 103.207 37.2075C103.22 37.2212 103.226 37.2467 103.207 37.2075L103.23 37.2447C103.23 37.2447 103.264 37.3094 103.246 37.2682C103.228 37.2271 103.258 37.3113 103.26 37.3211C103.262 37.3309 103.271 37.3662 103.275 37.3897C103.275 37.3407 103.275 37.3897 103.275 37.3897C103.278 37.4361 103.278 37.4826 103.275 37.5289C103.275 37.4819 103.275 37.5132 103.275 37.5289C103.271 37.552 103.265 37.5749 103.258 37.5975C103.258 37.621 103.246 37.6426 103.238 37.6661C103.23 37.6896 103.207 37.7484 103.224 37.7053C103.19 37.7826 103.148 37.8567 103.101 37.9268L103.07 37.9738C103.017 38.0463 103.087 37.9542 103.052 37.9934C103.019 38.0336 102.984 38.0716 102.946 38.1071L102.905 38.1424L102.885 38.1581L102.781 38.2169C102.797 38.2169 102.834 38.1875 102.781 38.2169L102.73 38.2325L102.689 38.2423C102.623 38.2619 102.748 38.2423 102.68 38.2423C102.644 38.2443 102.608 38.2443 102.572 38.2423C102.544 38.2423 102.478 38.2286 102.538 38.2423L102.435 38.2169L102.391 38.2031C102.364 38.2031 102.337 38.1777 102.38 38.2031C102.347 38.1881 102.315 38.1711 102.284 38.1522L102.246 38.1287C102.19 38.0934 102.272 38.1561 102.246 38.1287C102.221 38.1012 102.197 38.0875 102.176 38.064L102.146 38.0307C102.109 37.9915 102.168 38.0718 102.133 38.0111C102.117 37.9836 102.101 37.9542 102.084 37.9268C102.084 37.9523 102.113 37.9719 102.084 37.9268C102.078 37.9094 102.072 37.8918 102.068 37.8739C102.068 37.8484 102.05 37.7621 102.054 37.8307C102.054 37.7896 102.054 37.7504 102.054 37.7112C102.054 37.6426 102.054 37.672 102.054 37.7112C102.056 37.6893 102.06 37.6677 102.066 37.6465C102.075 37.6107 102.085 37.5754 102.097 37.5407C102.076 37.572 102.117 37.476 102.097 37.5407C102.119 37.5093 102.121 37.4936 102.133 37.4701L102.193 37.378C102.158 37.427 102.184 37.3937 102.193 37.378L102.246 37.3231L102.288 37.2859C102.252 37.3192 102.278 37.2859 102.301 37.2859C102.325 37.2859 102.364 37.2506 102.395 37.2329C102.34 37.2623 102.382 37.2329 102.395 37.2329L102.47 37.2114C102.612 37.1625 102.691 37.0117 102.651 36.8671C102.611 36.7224 102.466 36.6338 102.319 36.6645L102.301 36.692Z" fill="#AFAA96"/>
<path d="M109.124 36.9547C108.82 37.027 108.584 37.2678 108.518 37.5737C108.453 37.8796 108.569 38.196 108.816 38.3869C109.064 38.5778 109.4 38.6093 109.679 38.4678C109.853 38.3724 110 38.2333 110.104 38.064C110.292 37.8125 110.352 37.488 110.267 37.1859C110.157 36.8959 109.775 36.7097 109.52 36.8861" fill="#AFAA96"/>
<path d="M109.057 36.692C108.638 36.8079 108.323 37.1539 108.246 37.5818C108.163 38.0267 108.376 38.4742 108.773 38.6912C109.172 38.9186 109.67 38.8773 110.026 38.5873C110.439 38.2597 110.646 37.7368 110.568 37.2153C110.467 36.7116 109.839 36.3392 109.375 36.6391C109.24 36.7181 109.195 36.8914 109.274 37.0262C109.353 37.1609 109.526 37.2061 109.661 37.1271C109.677 37.1198 109.692 37.1113 109.706 37.1016C109.649 37.1016 109.73 37.0801 109.706 37.1016C109.719 37.1003 109.732 37.1003 109.745 37.1016H109.71C109.72 37.1006 109.731 37.1006 109.741 37.1016H109.792C109.781 37.1016 109.734 37.0879 109.781 37.1016L109.82 37.1134C109.871 37.1251 109.783 37.0879 109.841 37.1134C109.87 37.1281 109.898 37.1451 109.924 37.1643C109.869 37.1251 109.949 37.1937 109.963 37.2075C109.977 37.2212 109.982 37.2467 109.963 37.2075L109.986 37.2447C109.986 37.2447 110.02 37.3094 110 37.2682C109.98 37.2271 110.014 37.3113 110.016 37.3211C110.018 37.3309 110.028 37.3662 110.031 37.3897C110.031 37.3407 110.031 37.3897 110.031 37.3897C110.034 37.4361 110.034 37.4826 110.031 37.5289C110.031 37.4819 110.031 37.5132 110.031 37.5289C110.027 37.552 110.021 37.5749 110.014 37.5975C110.014 37.621 110.002 37.6426 109.994 37.6661C109.986 37.6896 109.963 37.7484 109.98 37.7053C109.946 37.7826 109.905 37.8567 109.857 37.9268L109.824 37.9738C109.773 38.0463 109.841 37.9542 109.808 37.9934C109.775 38.0336 109.74 38.0716 109.702 38.1071L109.661 38.1424L109.639 38.1581C109.606 38.1796 109.573 38.1973 109.538 38.2169C109.553 38.2169 109.59 38.1875 109.538 38.2169L109.487 38.2325L109.445 38.2423C109.379 38.2619 109.504 38.2423 109.445 38.2423C109.409 38.2443 109.374 38.2443 109.338 38.2423C109.31 38.2423 109.244 38.2286 109.304 38.2423L109.2 38.2169L109.157 38.2031C109.13 38.2031 109.102 38.1777 109.146 38.2031C109.113 38.1881 109.08 38.1711 109.049 38.1522L109.012 38.1287C108.955 38.0934 109.038 38.1561 109.012 38.1287C108.987 38.1012 108.963 38.0875 108.942 38.064L108.912 38.0307C108.875 37.9915 108.934 38.0718 108.899 38.0111C108.883 37.9836 108.867 37.9542 108.85 37.9268C108.85 37.9523 108.879 37.9719 108.85 37.9268C108.843 37.9094 108.838 37.8918 108.834 37.8739C108.834 37.8484 108.816 37.7621 108.82 37.8307C108.82 37.7896 108.82 37.7504 108.82 37.7112C108.82 37.6426 108.82 37.672 108.82 37.7112C108.822 37.6893 108.826 37.6677 108.832 37.6465C108.841 37.6107 108.851 37.5754 108.863 37.5407C108.842 37.572 108.883 37.476 108.863 37.5407C108.885 37.5093 108.887 37.4936 108.899 37.4701L108.959 37.378C108.924 37.427 108.959 37.3937 108.959 37.378L109.012 37.3231L109.053 37.2859C109.018 37.3192 109.044 37.2859 109.067 37.2859C109.091 37.2859 109.13 37.2506 109.161 37.2329C109.106 37.2623 109.147 37.2329 109.161 37.2329L109.234 37.2114C109.374 37.1616 109.452 37.0123 109.413 36.8689C109.374 36.7255 109.231 36.6365 109.085 36.6645L109.057 36.692Z" fill="#AFAA96"/>
<path d="M51.1825 35.6179C50.3376 35.7052 49.5814 36.1803 49.1362 36.9037C48.707 37.5466 48.3287 38.458 48.4287 39.2459C48.4597 39.635 48.6794 39.9843 49.0167 40.1808C49.3597 40.3552 49.8575 40.2122 49.9085 39.7888C49.9555 39.3968 49.5518 39.1244 49.1931 39.2008C48.8344 39.2772 48.6208 39.6555 48.509 39.9848C48.2258 40.8839 48.4177 41.8653 49.0186 42.5916C49.2499 42.8738 49.6478 42.472 49.4106 42.1996C49.0146 41.7035 48.8537 41.0597 48.9696 40.4356C48.9967 40.2785 49.0441 40.1257 49.1108 39.9809C49.1376 39.9094 49.1813 39.8455 49.2382 39.7947C49.2382 39.7947 49.3597 39.7359 49.346 39.7712C49.3714 39.7045 49.2225 39.6614 49.1872 39.634C49.1405 39.59 49.1009 39.5391 49.0696 39.483C49.0073 39.3616 48.9738 39.2275 48.9716 39.091C48.95 38.4697 49.246 37.7896 49.5714 37.2741C49.9261 36.7136 50.4926 36.249 51.1746 36.1981C51.5353 36.1706 51.5392 35.6101 51.1746 35.6316L51.1825 35.6179Z" fill="white"/>
<path d="M50.0614 44.1028L50.4142 43.8931C50.4768 43.855 50.523 43.7949 50.5436 43.7245C50.5609 43.651 50.5511 43.5738 50.5161 43.5069C50.4785 43.4431 50.4172 43.3966 50.3456 43.3776C50.2723 43.3579 50.1942 43.3678 50.128 43.405L49.7772 43.6147C49.714 43.6526 49.6671 43.7127 49.6459 43.7833C49.6346 43.8204 49.6346 43.8599 49.6459 43.897C49.6466 43.9347 49.6581 43.9715 49.6792 44.0028C49.7167 44.066 49.777 44.1123 49.8478 44.1322C49.9213 44.1521 49.9997 44.1415 50.0653 44.1028H50.0614Z" fill="white"/>
<path d="M50.6846 45.5393L50.7532 45.4687C50.7812 45.4442 50.8015 45.4123 50.812 45.3766C50.8307 45.3439 50.8395 45.3065 50.8375 45.2688C50.8391 45.2306 50.8303 45.1927 50.812 45.1591C50.8019 45.1238 50.7814 45.0923 50.7532 45.0689L50.6964 45.0238C50.6531 44.9981 50.6036 44.9846 50.5533 44.9846L50.4788 44.9964C50.4312 45.0088 50.3879 45.0338 50.3534 45.0689L50.2828 45.1375C50.2561 45.1626 50.2365 45.1944 50.226 45.2296C50.2077 45.2632 50.1989 45.3012 50.2005 45.3394C50.1991 45.377 50.2079 45.4142 50.226 45.4472C50.2359 45.4826 50.2556 45.5145 50.2828 45.5393L50.3416 45.5824C50.3848 45.6084 50.4343 45.6219 50.4847 45.6216L50.5592 45.6118C50.6065 45.5986 50.6496 45.5737 50.6846 45.5393Z" fill="white"/>
<path d="M51.3961 47.5877C51.5434 47.5754 51.6567 47.4523 51.6567 47.3045C51.6567 47.1566 51.5434 47.0335 51.3961 47.0212C51.2488 47.0335 51.1355 47.1566 51.1355 47.3045C51.1355 47.4523 51.2488 47.5754 51.3961 47.5877Z" fill="white"/>
<path d="M64.8045 34.7319C64.1078 34.7802 63.4272 34.9646 62.8014 35.2749C62.2761 35.5355 61.7528 35.9197 61.4941 36.4646C61.3321 36.7645 61.29 37.1148 61.3765 37.4446C61.4684 37.7523 61.7387 37.9729 62.0586 38.0012C62.3663 38.0189 62.6975 37.7837 62.6113 37.4426C62.5251 37.1016 62.1389 37.0055 61.8273 37.1212C61.1945 37.3786 60.7354 37.9395 60.6082 38.6108C60.5415 38.9675 61.0864 39.1204 61.1531 38.7617C61.1983 38.4927 61.3162 38.2413 61.4941 38.0345C61.5795 37.9357 61.6777 37.8487 61.7861 37.7758C61.8423 37.738 61.9012 37.7046 61.9625 37.6759C61.9961 37.6581 62.0316 37.6443 62.0684 37.6347C62.1154 37.6347 62.1154 37.6288 62.0684 37.6171V37.4661C62.0801 37.4015 62.1174 37.4799 62.0782 37.4348C62.039 37.3897 62.0155 37.4113 61.9959 37.3956C61.939 37.3454 61.9038 37.2752 61.8979 37.1996C61.8833 37.0374 61.9167 36.8745 61.9939 36.7311C62.1482 36.4399 62.3759 36.194 62.6544 36.0177C63.2999 35.599 64.0425 35.354 64.8104 35.3062C65.173 35.2788 65.175 34.7182 64.8104 34.7398L64.8045 34.7319Z" fill="white"/>
<path d="M61.2256 40.9883C61.3729 40.9761 61.4862 40.8529 61.4862 40.7051C61.4862 40.5573 61.3729 40.4341 61.2256 40.4219C61.0783 40.4341 60.965 40.5573 60.965 40.7051C60.965 40.8529 61.0783 40.9761 61.2256 40.9883Z" fill="white"/>
<path d="M141.333 42.5053C141.956 41.5851 142.896 40.9254 143.973 40.6512C144.123 40.6095 144.211 40.4537 144.17 40.3033C144.128 40.1528 143.972 40.0646 143.822 40.1063C142.604 40.4223 141.545 41.1741 140.845 42.2192C140.649 42.523 141.131 42.8072 141.333 42.5053Z" fill="white"/>
<path d="M143.132 43.6892L143.957 43.2306C144.023 43.1925 144.071 43.1296 144.09 43.0559C144.109 42.9822 144.098 42.9039 144.059 42.8386C143.978 42.7039 143.804 42.6587 143.667 42.7366L142.842 43.1953C142.755 43.2464 142.701 43.3401 142.702 43.4412C142.703 43.5423 142.757 43.6353 142.845 43.6852C142.933 43.7352 143.041 43.7344 143.128 43.6833L143.132 43.6892Z" fill="white"/>
<path d="M158.069 35.028C157.499 35.7532 157.654 36.792 158.293 37.431C159.047 38.1816 160.264 38.1601 161.19 37.7818L160.972 37.2644C160.33 37.7063 159.807 38.2993 159.449 38.9911C159.1 39.6712 158.843 40.5238 158.949 41.2941C159.065 42.133 159.829 42.574 160.576 42.7876C161.437 43.0323 162.353 43.0056 163.199 42.7112L162.981 42.1938C161.825 42.6975 160.739 43.8617 160.629 45.1651C160.582 45.8271 160.902 46.4616 161.462 46.8174C162.066 47.2388 162.834 47.3074 163.547 47.3231C163.912 47.3231 163.912 46.7645 163.547 46.7566C162.959 46.7429 162.32 46.7018 161.807 46.3646C161.332 46.085 161.094 45.5293 161.219 44.9926C161.452 43.9499 162.313 43.1012 163.267 42.6838C163.559 42.5564 163.349 42.0624 163.048 42.1663C162.343 42.4184 161.579 42.4572 160.852 42.278C160.213 42.1173 159.506 41.7959 159.496 41.0432C159.476 39.7594 160.217 38.4796 161.26 37.7544C161.503 37.5858 161.36 37.1076 161.043 37.2389C160.339 37.527 159.424 37.6309 158.79 37.1174C158.326 36.741 158.071 35.9414 158.473 35.4298C158.696 35.1476 158.299 34.7438 158.081 35.0378L158.069 35.028Z" fill="black"/>
<path d="M155.029 27.2175L152.532 32.0607L151.286 34.4832C151.09 34.8576 150.894 35.23 150.735 35.62C150.588 35.9768 150.413 36.404 150.459 36.796C150.5 37.1567 150.813 37.5134 151.207 37.435C151.374 37.4001 151.513 37.2879 151.584 37.133C151.654 36.9781 151.646 36.799 151.562 36.651C151.481 36.5152 151.306 36.4705 151.17 36.551C150.666 36.9045 150.346 37.4656 150.3 38.0798C150.266 38.4424 150.833 38.4405 150.864 38.0798C150.902 37.6646 151.116 37.2855 151.452 37.0391L151.06 36.9372C151.06 36.9058 151.06 36.8862 151.084 36.8764C151.054 36.8601 151.032 36.8336 151.021 36.8019C150.995 36.715 150.995 36.6222 151.021 36.5354C151.062 36.334 151.122 36.1371 151.201 35.9474C151.367 35.5454 151.554 35.1528 151.762 34.7714L153.028 32.3468L155.523 27.5037C155.69 27.1803 155.202 26.8941 155.035 27.2175H155.029Z" fill="white"/>
<path d="M159.212 33.6856C159.761 32.733 160.751 32.1191 161.848 32.0509C162.211 32.0313 162.213 31.4629 161.848 31.4845C160.552 31.5582 159.379 32.2784 158.728 33.4014C158.664 33.535 158.714 33.6948 158.842 33.769C158.97 33.8432 159.133 33.8069 159.218 33.6856H159.212Z" fill="white"/>
<path d="M161.599 39.8124C162.148 38.6051 163.278 37.7638 164.592 37.5839C164.74 37.5402 164.827 37.3866 164.788 37.237C164.743 37.0891 164.589 37.0028 164.439 37.041C162.984 37.2579 161.736 38.1928 161.119 39.5282C161.042 39.6646 161.086 39.8376 161.219 39.9202C161.284 39.9588 161.362 39.9697 161.436 39.9506C161.51 39.9315 161.572 39.8839 161.611 39.8183L161.599 39.8124Z" fill="white"/>
<path d="M163.508 44.8711L163.559 44.8006L163.585 44.7653C163.61 44.732 163.585 44.7555 163.585 44.7751C163.622 44.73 163.657 44.6849 163.696 44.6399C163.775 44.5513 163.858 44.4669 163.945 44.387L164.077 44.2733L164.112 44.2479C164.069 44.2792 164.092 44.2635 164.112 44.2479L164.182 44.1969C164.279 44.1256 164.38 44.0601 164.484 44.0009C164.61 43.9176 164.648 43.7509 164.572 43.6209C164.496 43.4909 164.332 43.4427 164.198 43.5109C163.734 43.7689 163.336 44.132 163.038 44.5713C162.999 44.6366 162.988 44.7149 163.007 44.7886C163.026 44.8623 163.074 44.9252 163.14 44.9633C163.276 45.0424 163.451 44.9969 163.532 44.8613L163.508 44.8711Z" fill="white"/>
<path d="M156.787 37.4231C157.576 39.7415 157.445 42.2743 156.421 44.4987C156.268 44.8261 156.756 45.1142 156.909 44.7829C158.01 42.43 158.164 39.7437 157.34 37.2801C157.224 36.9371 156.676 37.0841 156.795 37.429L156.787 37.4231Z" fill="white"/>
<path d="M158.657 46.0708C159.018 45.3356 159.228 44.5361 159.277 43.7188C159.275 43.5633 159.15 43.4376 158.994 43.4365C158.839 43.4396 158.714 43.5639 158.71 43.7188C158.667 44.4358 158.483 45.1373 158.167 45.7826C158.088 45.9192 158.133 46.0939 158.269 46.1746C158.405 46.2552 158.58 46.2105 158.661 46.0747L158.657 46.0708Z" fill="white"/>
<path d="M130.433 103.246C129.201 102.243 128.924 100.472 129.792 99.1412C130.66 97.8104 132.392 97.3496 133.806 98.0733C134.559 98.4653 135.12 99.1297 135.633 99.802C140.928 106.808 143.34 115.574 142.376 124.302C142.18 125.958 141.848 127.66 140.892 129.026C139.473 131.058 136.854 132.017 134.379 131.907C131.903 131.797 129.557 130.75 127.452 129.441C119.338 124.392 114.41 115.666 109.397 107.528C109.052 106.97 108.695 106.399 108.187 105.982C107.219 105.186 105.865 105.072 104.614 105.143C103.364 105.214 102.096 105.435 100.871 105.178C99.6456 104.922 98.4343 104.02 98.3226 102.773C98.2108 101.527 99.7416 100.317 100.765 101.041C99.5397 102.675 96.4645 102.115 95.8941 100.153C95.3238 98.1909 97.6248 96.0702 99.5358 96.7973C99.1438 98.1282 97.1191 98.4437 96.147 97.4539C95.1748 96.4641 95.31 94.7099 96.2136 93.6653C97.1172 92.6206 98.5832 92.1835 99.9709 92.2227C101.359 92.2619 102.695 92.7107 104.01 93.1537C102.897 93.4908 101.698 92.3697 101.739 91.2172C101.78 90.0647 102.803 89.0847 103.942 88.8535C105.081 88.6222 106.274 89.0044 107.254 89.6375C109.987 91.3799 111.19 94.6766 112.433 97.6735C115.678 105.483 120.305 112.644 126.092 118.812C128.389 121.258 131.145 123.669 134.49 123.908C135.147 123.953 135.847 123.908 136.396 123.536C137.675 122.681 137.448 120.76 137.025 119.281C135.593 114.261 133.637 109.406 131.19 104.796" fill="black"/>
<path d="M130.633 103.046C129.559 102.148 129.261 100.468 130.045 99.2826C130.871 98.1129 132.422 97.7123 133.71 98.3359C134.481 98.7436 135.033 99.457 135.547 100.139C136.06 100.821 136.548 101.531 137.007 102.254C137.926 103.7 138.734 105.215 139.424 106.783C140.813 109.944 141.716 113.296 142.103 116.727C142.299 118.429 142.364 120.144 142.299 121.856C142.23 123.577 142.103 125.362 141.57 127.011C141.103 128.567 140.048 129.88 138.63 130.672C137.255 131.407 135.697 131.73 134.143 131.603C132.323 131.474 130.572 130.819 128.971 129.972C127.469 129.163 126.047 128.213 124.724 127.136C122.176 125.084 119.949 122.65 117.958 120.059C115.921 117.409 114.11 114.598 112.352 111.76C111.478 110.347 110.618 108.928 109.747 107.515C109.302 106.793 108.852 106.06 108.14 105.572C107.46 105.143 106.681 104.898 105.878 104.861C104.083 104.716 102.172 105.388 100.43 104.743C99.7317 104.509 99.1488 104.019 98.7988 103.371C98.4903 102.778 98.6048 102.053 99.081 101.584C99.4907 101.164 100.116 100.927 100.639 101.28L100.539 100.888C99.7259 101.946 98.0599 101.901 97.0328 101.203C96.4669 100.832 96.1207 100.205 96.1077 99.5276C96.1337 98.7628 96.4915 98.0472 97.0877 97.5676C97.7277 96.9855 98.6309 96.7917 99.4534 97.0599L99.2574 96.711C99.0242 97.4598 98.2049 97.7832 97.4758 97.7361C96.584 97.6793 95.9627 97.0148 95.7961 96.1583C95.6314 95.1841 95.9803 94.1937 96.7192 93.5378C97.5032 92.8283 98.591 92.5225 99.6318 92.4951C101.114 92.4559 102.546 92.9498 103.932 93.4182V92.8714C102.891 93.1615 101.911 92.0717 102.027 91.0702C102.154 89.9432 103.281 89.1552 104.348 89.069C105.622 88.9651 106.856 89.5825 107.815 90.3783C108.677 91.1196 109.407 92.0033 109.971 92.991C111.208 95.0686 111.978 97.3931 112.964 99.5942C114.057 102.03 115.288 104.402 116.65 106.697C119.356 111.29 122.584 115.553 126.27 119.404C127.964 121.168 129.88 122.846 132.209 123.69C133.309 124.082 134.665 124.386 135.823 124.082C136.909 123.792 137.497 122.867 137.613 121.795C137.732 120.672 137.403 119.557 137.087 118.493C136.682 117.119 136.236 115.758 135.749 114.408C134.78 111.712 133.659 109.075 132.389 106.507C132.078 105.877 131.758 105.253 131.429 104.635C131.258 104.312 130.77 104.598 130.941 104.92C132.301 107.485 133.51 110.128 134.563 112.834C135.092 114.198 135.581 115.577 136.029 116.972C136.245 117.639 136.45 118.31 136.644 118.984C136.82 119.528 136.951 120.085 137.036 120.65C137.152 121.607 137.085 122.793 136.154 123.334C135.612 123.651 134.945 123.647 134.338 123.592C133.716 123.535 133.105 123.403 132.515 123.2C130.12 122.377 128.171 120.582 126.46 118.777C120.911 112.898 116.419 106.106 113.181 98.6985C112.221 96.4974 111.449 94.1748 110.116 92.1599C108.846 90.2411 106.68 88.2399 104.191 88.532C103.06 88.6523 102.082 89.371 101.629 90.4136C101.218 91.4689 101.641 92.6663 102.625 93.2281C103.066 93.4883 103.594 93.559 104.089 93.4241C104.209 93.3871 104.291 93.2762 104.291 93.1507C104.291 93.0252 104.209 92.9143 104.089 92.8773C102.668 92.3971 101.196 91.8973 99.6769 91.9345C98.448 91.958 97.1798 92.3363 96.2724 93.1928C95.4277 93.9949 95.0457 95.1696 95.2571 96.3151C95.4355 97.3553 96.2722 98.157 97.319 98.2908C98.3558 98.4202 99.475 97.9125 99.8121 96.8678C99.8502 96.7184 99.7638 96.5655 99.6161 96.5209C97.811 95.8624 95.7647 97.4029 95.5491 99.2277C95.3374 101.015 97.0015 102.264 98.6538 102.279C99.5674 102.303 100.439 101.894 101.004 101.176C101.083 101.039 101.037 100.865 100.902 100.784C99.6534 99.947 98.0168 101.299 98.0285 102.638C98.0422 104.306 99.7729 105.321 101.239 105.513C103.146 105.76 105.116 105.033 106.986 105.641C107.864 105.927 108.446 106.55 108.934 107.311C109.422 108.071 109.849 108.796 110.306 109.541C112.141 112.54 113.977 115.541 116.017 118.406C118.024 121.223 120.229 123.918 122.797 126.246C124.081 127.415 125.457 128.478 126.913 129.423C128.503 130.449 130.216 131.338 132.054 131.819C133.74 132.289 135.52 132.299 137.211 131.846C138.776 131.427 140.153 130.49 141.115 129.186C142.189 127.671 142.505 125.772 142.683 123.965C142.872 122.165 142.914 120.354 142.807 118.547C142.488 113.111 140.902 107.824 138.175 103.11C137.724 102.337 137.244 101.58 136.733 100.841C136.233 100.078 135.673 99.3569 135.057 98.6848C134.503 98.0658 133.756 97.6516 132.938 97.5088C132.208 97.4078 131.464 97.533 130.808 97.8674C129.446 98.5741 128.749 100.123 129.122 101.611C129.281 102.325 129.667 102.967 130.223 103.442C130.502 103.673 130.904 103.275 130.615 103.05L130.633 103.046Z" fill="black"/>
<path d="M98.2049 115.935C94.2692 115.543 90.3021 115.013 86.5017 113.957V113.969C91.2098 116.696 96.3457 118.607 101.692 119.619C102.084 118.518 102.513 117.427 102.979 116.346C101.382 116.24 99.7905 116.097 98.2049 115.935Z" fill="black"/>
<path d="M98.2049 115.653C94.2849 115.261 90.3767 114.735 86.5782 113.693C86.4281 113.653 86.2739 113.74 86.2293 113.889V113.902C86.1969 114.026 86.2496 114.156 86.3587 114.222C90.0369 116.35 93.978 117.987 98.0814 119.092C99.2496 119.406 100.426 119.676 101.609 119.902C101.759 119.937 101.91 119.852 101.958 119.706C102.341 118.623 102.76 117.553 103.215 116.497C103.263 116.41 103.263 116.303 103.213 116.216C103.163 116.129 103.072 116.074 102.972 116.072C101.378 115.966 99.7886 115.823 98.201 115.662C97.8384 115.625 97.8423 116.192 98.201 116.229C99.7886 116.39 101.378 116.533 102.972 116.638L102.727 116.213C102.251 117.311 101.813 118.425 101.411 119.555L101.76 119.359C97.6199 118.573 93.6004 117.248 89.8043 115.417C88.7276 114.895 87.6725 114.334 86.6389 113.736L86.7683 114.055V114.043L86.4214 114.239C90.2669 115.306 94.2359 115.825 98.199 116.229C98.5675 116.256 98.5636 115.69 98.2049 115.653Z" fill="black"/>
<path d="M121.76 114.471C120.171 115.025 118.542 115.459 116.888 115.77C113.222 116.462 109.491 116.611 105.757 116.484C105.357 117.673 104.995 118.874 104.671 120.088L105.018 120.133C107.783 120.457 110.572 120.539 113.358 120.621C115.71 120.69 118.095 120.753 120.414 120.425C120.727 118.412 121.177 116.423 121.76 114.471V114.471Z" fill="black"/>
<path d="M121.684 114.198C117.717 115.57 113.532 116.142 109.336 116.229C108.14 116.254 106.945 116.24 105.749 116.201C105.622 116.204 105.511 116.287 105.475 116.409C105.083 117.598 104.721 118.8 104.391 120.013C104.369 120.098 104.388 120.189 104.441 120.258C104.494 120.328 104.575 120.37 104.663 120.372C106.721 120.639 108.799 120.748 110.872 120.825C112.946 120.901 114.988 120.99 117.035 120.952C118.191 120.936 119.346 120.85 120.492 120.694C120.589 120.67 120.664 120.594 120.688 120.498C121.004 118.487 121.454 116.5 122.035 114.549C122.14 114.198 121.594 114.049 121.49 114.398C120.907 116.348 120.457 118.336 120.143 120.347L120.339 120.151C118.328 120.433 116.29 120.417 114.263 120.364C112.237 120.311 110.159 120.256 108.113 120.125C106.962 120.053 105.812 119.955 104.669 119.808L104.941 120.166C105.267 118.954 105.629 117.752 106.027 116.562L105.755 116.77C109.992 116.909 114.279 116.705 118.42 115.737C119.574 115.469 120.713 115.142 121.833 114.757C122.178 114.625 122.031 114.079 121.684 114.198Z" fill="black"/>
<path d="M84.5259 137.658C85.0825 137.42 85.7292 137.592 86.0939 138.075C86.4313 138.599 86.349 139.288 85.8979 139.717L85.8195 139.784C85.7392 139.812 85.7372 139.833 85.8195 139.849C85.8313 139.872 85.8078 139.759 85.8078 139.739C85.8239 139.594 85.875 139.455 85.9567 139.333C86.2119 138.87 86.6594 138.544 87.1785 138.442C87.6977 138.341 88.2351 138.475 88.6459 138.808C88.7817 138.889 88.9572 138.844 89.0379 138.708C89.1158 138.571 89.0706 138.397 88.9359 138.316C88.2731 137.813 87.3953 137.695 86.6231 138.004C85.9724 138.273 85.2864 138.939 85.2315 139.68C85.208 140.008 85.3844 140.392 85.7588 140.386C86.1331 140.38 86.4428 139.994 86.6075 139.71C86.983 139.072 86.9414 138.272 86.5016 137.677C85.9933 137.046 85.1362 136.814 84.3789 137.103C84.2317 137.149 84.1458 137.302 84.1829 137.452C84.2275 137.6 84.3817 137.687 84.5318 137.648L84.5259 137.658Z" fill="white"/>
<path d="M109.244 136.627C108.324 136.903 107.899 137.865 107.787 138.747C107.726 139.245 107.766 139.786 108.068 140.204C108.346 140.566 108.769 140.789 109.226 140.813C110.175 140.894 111.051 140.16 111.437 139.337C111.613 138.961 111.633 138.385 111.129 138.257C110.576 138.114 110.202 138.8 109.93 139.159C109.755 139.386 109.508 139.635 109.587 139.943C109.659 140.223 109.931 140.362 110.175 140.48C110.763 140.768 111.372 141.027 111.989 141.264C112.331 141.391 112.478 140.845 112.138 140.719C111.746 140.573 111.359 140.413 110.976 140.241C110.792 140.159 110.608 140.072 110.425 139.982C110.349 139.948 110.274 139.908 110.202 139.865C110.124 139.81 110.139 139.821 110.19 139.749C110.31 139.578 110.441 139.418 110.568 139.253C110.665 139.085 110.795 138.939 110.951 138.824C111.006 138.794 110.984 138.796 110.996 138.824C111.002 138.866 110.997 138.909 110.982 138.949C110.94 139.097 110.869 139.236 110.774 139.357C110.425 139.878 109.857 140.337 109.193 140.247C108.906 140.217 108.648 140.059 108.491 139.817C108.332 139.498 108.284 139.135 108.354 138.785C108.436 138.153 108.73 137.377 109.398 137.177C109.747 137.072 109.594 136.527 109.247 136.631L109.244 136.627Z" fill="white"/>
<path d="M85.4864 142.948L87.909 142.422C88.0509 142.373 88.1303 142.223 88.0903 142.078C88.0504 141.933 87.9049 141.845 87.7581 141.875L85.3355 142.401C85.232 142.422 85.1491 142.5 85.1203 142.602C85.0916 142.703 85.1218 142.813 85.1987 142.885C85.2755 142.958 85.3864 142.982 85.4864 142.948Z" fill="white"/>
<path d="M85.9391 144.857L87.9383 144.635C88.0929 144.632 88.2174 144.508 88.2205 144.353C88.2195 144.197 88.0941 144.071 87.9383 144.069L85.9391 144.296C85.7842 144.299 85.6591 144.424 85.6549 144.578C85.656 144.735 85.7826 144.862 85.9391 144.863V144.857Z" fill="white"/>
<path d="M108.191 134.949C108.647 135.119 109.148 135.122 109.606 134.959C109.746 134.909 109.824 134.76 109.785 134.616C109.746 134.473 109.603 134.384 109.457 134.412C109.359 134.449 109.258 134.477 109.155 134.494C109.138 134.494 109.049 134.524 109.12 134.494C109.098 134.496 109.076 134.496 109.053 134.494C109.002 134.497 108.95 134.497 108.899 134.494C108.846 134.497 108.794 134.497 108.742 134.494C108.742 134.494 108.655 134.494 108.73 134.494C108.701 134.494 108.671 134.494 108.642 134.481C108.54 134.459 108.44 134.43 108.342 134.394C108.192 134.353 108.037 134.441 107.995 134.59C107.958 134.74 108.044 134.893 108.191 134.939V134.949Z" fill="white"/>
<path d="M108.793 132.536C108.94 132.524 109.053 132.401 109.053 132.253C109.053 132.105 108.94 131.982 108.793 131.97C108.645 131.982 108.532 132.105 108.532 132.253C108.532 132.401 108.645 132.524 108.793 132.536Z" fill="white"/>
<path d="M114.428 116.827C115.297 118.048 116.277 119.186 117.356 120.227C117.619 120.48 118.018 120.08 117.748 119.835C116.704 118.829 115.756 117.729 114.916 116.548C114.834 116.414 114.66 116.368 114.524 116.446C114.458 116.485 114.411 116.548 114.392 116.621C114.372 116.695 114.383 116.773 114.422 116.838L114.428 116.827Z" fill="white"/>
<path d="M38.2092 69.2733C36.9705 70.0573 35.5299 71.0549 35.2045 72.5955C35.0941 72.9734 35.124 73.3785 35.2888 73.7362C35.4676 74.0532 35.829 74.2205 36.1865 74.1517C36.5159 74.0741 36.7203 73.7443 36.6431 73.4147C36.5804 73.1149 36.2649 72.8267 35.9493 72.9816C35.5717 73.1902 35.2519 73.4892 35.0183 73.8518C34.7574 74.2259 34.5863 74.6552 34.5185 75.1062C34.4656 75.4629 35.0124 75.6178 35.0653 75.2571C35.1127 74.9159 35.2287 74.5879 35.4064 74.2928C35.4956 74.1452 35.6008 74.0079 35.72 73.8832C35.8317 73.7656 36.014 73.6695 36.112 73.548C36.2021 73.5062 36.1923 73.4905 36.0826 73.501C36.0826 73.5225 36.1218 73.5578 36.0963 73.5892C36.0277 73.6676 35.8631 73.5578 35.818 73.5049C35.622 73.2756 35.7259 72.8365 35.7964 72.5798C36.159 71.2803 37.433 70.4512 38.5012 69.7652C38.807 69.5692 38.5247 69.0792 38.2151 69.2772L38.2092 69.2733Z" fill="white"/>
<path d="M27.9075 70.6002L28.6915 69.6515C28.7423 69.5985 28.7723 69.5289 28.7757 69.4555C28.7734 69.3419 28.7036 69.2407 28.5983 69.198C28.4929 69.1554 28.3723 69.1796 28.2916 69.2595L27.5076 70.2082C27.4571 70.2614 27.4272 70.3309 27.4233 70.4042C27.4247 70.478 27.455 70.5484 27.5076 70.6002C27.6178 70.7037 27.7895 70.7037 27.8996 70.6002H27.9075Z" fill="white"/>
<path d="M31.3786 67.4406C31.3904 67.3935 31.4061 67.3484 31.4218 67.3034C31.4374 67.2583 31.4394 67.2583 31.4472 67.2348C31.4257 67.2955 31.4472 67.223 31.457 67.2152C31.495 67.1311 31.5389 67.0499 31.5884 66.9721C31.6138 66.931 31.6413 66.8918 31.6687 66.8526C31.6962 66.8134 31.702 66.8134 31.6687 66.8526L31.7138 66.7957C31.7752 66.7235 31.8406 66.6548 31.9098 66.5899L32.0196 66.4978L32.0803 66.4566C32.1564 66.4054 32.2356 66.3589 32.3175 66.3175L32.3822 66.2881C32.4547 66.2528 32.3292 66.3077 32.4037 66.2783C32.4488 66.2606 32.4939 66.243 32.539 66.2293C32.6306 66.2002 32.7243 66.1779 32.8192 66.1626C32.9685 66.119 33.0556 65.964 33.0152 65.8138C32.969 65.6665 32.8162 65.5806 32.6664 65.6178C31.778 65.7865 31.0594 66.4392 30.8063 67.3073C30.7671 67.4574 30.8537 67.6116 31.0023 67.6562C31.1521 67.6933 31.305 67.6074 31.3512 67.4602L31.3786 67.4406Z" fill="white"/>
<path d="M101.455 92.1602C102.95 92.06 104.441 92.4227 105.723 93.199C105.858 93.2672 106.022 93.219 106.098 93.089C106.174 92.959 106.135 92.7923 106.01 92.709C104.641 91.8809 103.051 91.4924 101.455 91.5957C101.094 91.6192 101.09 92.1837 101.455 92.1602Z" fill="white"/>
<path d="M88.2579 86.1173C87.8641 86.0776 87.5024 86.3377 87.4147 86.7237C87.3271 87.1097 87.5409 87.5005 87.9133 87.6348C88.2856 87.7691 88.6997 87.6048 88.8786 87.2517C89.0575 86.8985 88.9451 86.4675 88.6166 86.2466" fill="black"/>
<path d="M88.2579 85.8332C87.8407 85.809 87.4457 86.0221 87.2367 86.3839C87.0245 86.7441 87.0411 87.1948 87.2792 87.5385C87.5172 87.8822 87.9334 88.0561 88.3452 87.9841C88.757 87.9121 89.0894 87.6073 89.1967 87.2032C89.3147 86.7496 89.137 86.2706 88.7518 86.0037C88.6864 85.9646 88.6081 85.9534 88.5344 85.9726C88.4608 85.9917 88.3978 86.0396 88.3598 86.1056C88.2818 86.2423 88.327 86.4162 88.4617 86.4976C88.4323 86.4682 88.5185 86.5368 88.4617 86.4976C88.4911 86.527 88.4872 86.5192 88.4989 86.5329L88.5283 86.5623C88.5283 86.5623 88.5754 86.6152 88.546 86.5799C88.5166 86.5446 88.5577 86.5976 88.5597 86.6015L88.5832 86.6368C88.5832 86.6485 88.5969 86.6603 88.6028 86.674C88.6087 86.6877 88.6322 86.721 88.6028 86.674C88.6177 86.7059 88.6289 86.7395 88.6361 86.774C88.6403 86.7868 88.6436 86.7999 88.6459 86.8132V86.8367C88.6459 86.7936 88.6459 86.8543 88.6459 86.8622C88.6469 86.8759 88.6469 86.8896 88.6459 86.9033V86.9445C88.6459 86.9543 88.6459 87.0366 88.6459 86.9896C88.6459 86.9425 88.6459 87.0092 88.6459 87.0131C88.6436 87.027 88.6403 87.0408 88.6361 87.0542C88.6361 87.066 88.6361 87.0797 88.6244 87.0934C88.6126 87.1072 88.595 87.1562 88.6244 87.117C88.6538 87.0778 88.6126 87.1366 88.6107 87.1385C88.6087 87.1405 88.5969 87.164 88.5911 87.1758L88.5773 87.1973C88.5989 87.164 88.5597 87.2169 88.5519 87.2248C88.5311 87.2478 88.5089 87.2694 88.4852 87.2894C88.446 87.3247 88.4852 87.2894 88.495 87.2894C88.4819 87.301 88.4674 87.3109 88.4519 87.3188L88.3696 87.3659C88.3127 87.3992 88.4107 87.3522 88.3696 87.3659L88.3108 87.3874L88.2206 87.409C88.154 87.4247 88.2657 87.409 88.2206 87.409H88.1697H88.0873C88.0775 87.409 88.0207 87.3933 88.0619 87.409C88.103 87.4247 88.0383 87.409 88.0285 87.409C87.9979 87.4034 87.9682 87.3935 87.9403 87.3796C87.958 87.3796 87.9952 87.4149 87.9403 87.3796C87.9247 87.3723 87.9096 87.3638 87.8953 87.3541L87.86 87.3306C87.8169 87.3012 87.86 87.3306 87.86 87.3306C87.8255 87.3076 87.7956 87.2783 87.7718 87.2444L87.7443 87.213C87.7443 87.213 87.7757 87.2581 87.7443 87.213C87.713 87.1679 87.7071 87.1542 87.6914 87.1228C87.6857 87.11 87.6791 87.0976 87.6718 87.0856C87.6424 87.0248 87.6855 87.1268 87.6718 87.0856C87.6581 87.0444 87.6483 87.015 87.6405 86.9758C87.6418 86.9628 87.6418 86.9497 87.6405 86.9366C87.6561 86.9562 87.6405 86.9876 87.6405 86.9504C87.6385 86.9158 87.6385 86.8811 87.6405 86.8465C87.6385 86.8328 87.6385 86.819 87.6405 86.8053C87.615 86.8563 87.6405 86.8367 87.6405 86.8053C87.6486 86.7666 87.6597 86.7286 87.6738 86.6916C87.6738 86.7014 87.6483 86.7446 87.6738 86.7014C87.6831 86.6819 87.6935 86.6629 87.7051 86.6446L87.7345 86.5995L87.7228 86.6152L87.7443 86.5897C87.771 86.5608 87.7991 86.5333 87.8286 86.5074C87.8404 86.4956 87.8698 86.48 87.8286 86.5074L87.8815 86.4702L87.9286 86.4427L87.9639 86.4251C87.9227 86.4447 87.9874 86.4251 87.9893 86.4251L88.0521 86.4055H88.0932C88.1559 86.3898 88.0442 86.4055 88.103 86.4055C88.1618 86.4055 88.1893 86.4055 88.2324 86.4055C88.3883 86.4055 88.5146 86.2791 88.5146 86.1232C88.5115 85.9683 88.3873 85.8432 88.2324 85.839L88.2579 85.8332Z" fill="black"/>
<path d="M91.7662 87.3169C91.3726 87.2754 91.0098 87.5338 90.9204 87.9194C90.831 88.3049 91.0429 88.6967 91.4146 88.8328C91.7863 88.9688 92.201 88.8065 92.3817 88.4544C92.5624 88.1023 92.4522 87.6707 92.1249 87.4482" fill="black"/>
<path d="M91.7663 87.0345C91.3497 87.0104 90.9549 87.2226 90.7451 87.5833C90.534 87.9433 90.5509 88.3932 90.7886 88.7363C91.0263 89.0794 91.4415 89.2534 91.8528 89.1822C92.264 89.111 92.5966 88.8076 92.7051 88.4045C92.8243 87.9509 92.6464 87.4712 92.2602 87.205C92.1952 87.1652 92.1169 87.1534 92.0431 87.1722C91.9693 87.1911 91.9062 87.2389 91.8682 87.305C91.791 87.4413 91.8351 87.6143 91.9682 87.697C91.9388 87.6676 92.025 87.7362 91.9682 87.697L92.0054 87.7303L92.0348 87.7597L92.0525 87.7793C92.0231 87.746 92.0642 87.7969 92.0681 87.8009L92.0897 87.8361C92.097 87.8475 92.1035 87.8593 92.1093 87.8714C92.125 87.9008 92.1387 87.9204 92.1093 87.8714C92.1236 87.9036 92.1348 87.9371 92.1426 87.9714C92.1419 87.9844 92.1419 87.9975 92.1426 88.0106C92.1426 88.0106 92.1603 88.0811 92.1426 88.0341C92.125 87.9871 92.1426 88.0517 92.1426 88.0596C92.1416 88.0733 92.1416 88.087 92.1426 88.1007C92.1436 88.1144 92.1436 88.1282 92.1426 88.1419C92.1426 88.1419 92.1426 88.234 92.1426 88.187C92.1426 88.1399 92.1426 88.2066 92.1426 88.2105C92.1426 88.2144 92.1426 88.2379 92.1328 88.2497L92.1211 88.2909C92.1211 88.2909 92.0897 88.3536 92.1113 88.3144C92.1328 88.2752 92.0995 88.334 92.0995 88.3359L92.0779 88.3732C92.0779 88.3732 92.0407 88.4339 92.0642 88.3947C92.0877 88.3555 92.0466 88.4143 92.0407 88.4222C92.0348 88.43 91.9956 88.4653 91.9741 88.4869C91.9525 88.5084 91.9741 88.4869 91.9741 88.4869C91.9613 88.4988 91.9468 88.5088 91.9309 88.5163L91.8506 88.5613C91.7918 88.5947 91.8898 88.5496 91.8506 88.5613L91.7918 88.5809C91.7622 88.5906 91.7321 88.5985 91.7016 88.6045C91.635 88.6201 91.7487 88.6045 91.7016 88.6045H91.6487H91.5664C91.5664 88.6045 91.4997 88.5888 91.5429 88.6045L91.5095 88.5947C91.4782 88.5903 91.4478 88.5811 91.4194 88.5672C91.439 88.5672 91.4743 88.6025 91.4194 88.5672L91.3743 88.5417L91.341 88.5182C91.2959 88.4888 91.341 88.5182 91.341 88.5182C91.3055 88.4958 91.2748 88.4664 91.2508 88.432L91.2234 88.4006C91.2234 88.4006 91.2547 88.4457 91.2234 88.4006C91.192 88.3555 91.1861 88.3438 91.1685 88.3124L91.1509 88.2752C91.1215 88.2144 91.1626 88.3163 91.1509 88.2752C91.1391 88.234 91.1273 88.2027 91.1195 88.1654C91.1206 88.1517 91.1206 88.138 91.1195 88.1243C91.1352 88.1439 91.1195 88.1752 91.1195 88.138C91.1195 88.1007 91.1195 88.0694 91.1195 88.0361C91.1185 88.0224 91.1185 88.0086 91.1195 87.9949C91.094 88.0439 91.1195 88.0263 91.1195 87.9949C91.1279 87.9569 91.139 87.9196 91.1528 87.8832C91.1273 87.9361 91.1528 87.893 91.1528 87.8832C91.1783 87.8303 91.1744 87.8459 91.1842 87.8283L91.2155 87.7832C91.2273 87.7656 91.2155 87.7715 91.2038 87.7969L91.2234 87.7734C91.2508 87.744 91.2802 87.7166 91.3077 87.6891C91.3351 87.6617 91.3508 87.6637 91.3077 87.6891L91.3625 87.6519L91.4076 87.6245L91.4429 87.6068L91.4684 87.597L91.5311 87.5794H91.5723C91.5233 87.5794 91.635 87.5637 91.5723 87.5794C91.6213 87.5794 91.6585 87.5794 91.7016 87.5794C91.8586 87.5794 91.9858 87.4521 91.9858 87.2952C91.9817 87.1403 91.8565 87.016 91.7016 87.0129L91.7663 87.0345Z" fill="black"/>
<path d="M89.0458 89.906C88.6522 89.8645 88.2894 90.123 88.2 90.5085C88.1105 90.8941 88.3225 91.2858 88.6941 91.4219C89.0658 91.5579 89.4806 91.3957 89.6612 91.0435C89.8419 90.6914 89.7318 90.2598 89.4044 90.0373" fill="black"/>
<path d="M89.0458 89.6239C88.6292 89.5998 88.2345 89.812 88.0247 90.1727C87.8259 90.5312 87.851 90.972 88.0894 91.3056C88.3278 91.6528 88.7506 91.8241 89.1634 91.7407C89.5574 91.6657 89.8769 91.3779 89.9925 90.9939C90.1102 90.5398 89.9327 90.0604 89.5476 89.7924C89.4821 89.7539 89.404 89.743 89.3305 89.7621C89.2569 89.7812 89.194 89.8288 89.1556 89.8944C89.0787 90.0312 89.1237 90.2043 89.2575 90.2864C89.2262 90.257 89.3124 90.3236 89.2575 90.2864L89.2967 90.3216L89.3261 90.351L89.3438 90.3706C89.3144 90.3373 89.3555 90.3883 89.3575 90.3922L89.381 90.4275L89.4006 90.4628C89.4163 90.4922 89.428 90.5118 89.4006 90.4628C89.4155 90.494 89.4267 90.5269 89.4339 90.5608C89.4381 90.5742 89.4414 90.588 89.4437 90.6019C89.4437 90.6019 89.4614 90.6725 89.4437 90.6254C89.4261 90.5784 89.4437 90.6431 89.4437 90.649C89.4447 90.6633 89.4447 90.6777 89.4437 90.6921V90.7332C89.4437 90.7332 89.4437 90.8234 89.4437 90.7783C89.4437 90.7332 89.4437 90.796 89.4437 90.8018C89.4444 90.8149 89.4444 90.828 89.4437 90.841L89.432 90.8802C89.432 90.8802 89.4026 90.943 89.432 90.9057C89.4614 90.8685 89.4202 90.9234 89.4182 90.9273C89.4118 90.9395 89.4046 90.9512 89.3967 90.9626C89.3967 90.9626 89.3594 91.0233 89.3849 90.9861C89.4104 90.9488 89.3673 91.0057 89.3594 91.0116C89.3392 91.0351 89.3169 91.0567 89.2928 91.0762C89.2536 91.1115 89.2928 91.0762 89.2928 91.0762C89.2792 91.0872 89.2648 91.097 89.2497 91.1056L89.1674 91.1507C89.1105 91.184 89.2085 91.137 89.1674 91.1507L89.1086 91.1723L89.0164 91.1958C88.9518 91.2115 89.0635 91.1958 89.0164 91.1958H88.9655C88.938 91.1958 88.9106 91.1958 88.8832 91.1958C88.8557 91.1958 88.8146 91.1801 88.8577 91.1958L88.8244 91.186C88.7935 91.1813 88.7637 91.1713 88.7362 91.1566C88.7538 91.1566 88.7891 91.1919 88.7362 91.1566C88.7205 91.1493 88.7054 91.1408 88.6911 91.1311L88.6558 91.1096C88.6107 91.0802 88.6558 91.1096 88.6558 91.1096C88.6264 91.0998 88.5872 91.0468 88.5656 91.0233C88.5441 90.9998 88.5382 90.9939 88.5402 90.992C88.5421 90.99 88.5696 91.039 88.5402 90.992C88.5108 90.9449 88.5029 90.9332 88.4872 90.9038L88.4676 90.8665C88.4382 90.8058 88.4794 90.9077 88.4676 90.8665C88.4559 90.8254 88.4441 90.794 88.4343 90.7568C88.4356 90.7431 88.4356 90.7293 88.4343 90.7156C88.452 90.7352 88.4343 90.7666 88.4343 90.7293C88.4324 90.6947 88.4324 90.66 88.4343 90.6254C88.4325 90.6118 88.4325 90.5979 88.4343 90.5843C88.4088 90.6352 88.4343 90.6156 88.4343 90.5843C88.4437 90.5463 88.4555 90.509 88.4696 90.4726C88.4441 90.5255 88.4696 90.4726 88.4696 90.4726L88.501 90.4157L88.5304 90.3726C88.5421 90.355 88.5304 90.3608 88.5186 90.3863L88.5402 90.3608C88.5668 90.3319 88.5949 90.3045 88.6244 90.2785L88.6774 90.2432L88.7244 90.2158C88.7244 90.2158 88.7969 90.1805 88.7577 90.1982C88.7185 90.2158 88.7812 90.1982 88.7852 90.1884L88.8459 90.1707L88.889 90.1609C88.84 90.1609 88.9518 90.1472 88.889 90.1609C88.9321 90.158 88.9753 90.158 89.0184 90.1609C89.1657 90.1487 89.279 90.0255 89.279 89.8777C89.279 89.7299 89.1657 89.6067 89.0184 89.5945L89.0458 89.6239Z" fill="black"/>
<path d="M88.2794 83.9281C91.2521 83.0146 94.3784 82.7093 97.4718 83.0304C97.8344 83.0696 97.8304 82.5032 97.4718 82.4659C94.3281 82.1408 91.1512 82.4521 88.1304 83.3813C87.7835 83.4891 87.9344 84.0359 88.2794 83.9281Z" fill="white"/>
<path d="M98.4713 83.4126C98.6186 83.4004 98.7319 83.2772 98.7319 83.1294C98.7319 82.9816 98.6186 82.8585 98.4713 82.8462C98.324 82.8585 98.2107 82.9816 98.2107 83.1294C98.2107 83.2772 98.324 83.4004 98.4713 83.4126Z" fill="white"/>
<path d="M99.52 83.4636C99.6759 83.4636 99.8023 83.3373 99.8023 83.1814C99.8023 83.0255 99.6759 82.8992 99.52 82.8992C99.3642 82.8992 99.2378 83.0255 99.2378 83.1814C99.2378 83.3373 99.3642 83.4636 99.52 83.4636Z" fill="white"/>
<path d="M99.6298 84.4651C99.7771 84.4529 99.8904 84.3297 99.8904 84.1819C99.8904 84.0341 99.7771 83.9109 99.6298 83.8987C99.4825 83.9109 99.3691 84.0341 99.3691 84.1819C99.3691 84.3297 99.4825 84.4529 99.6298 84.4651Z" fill="white"/>
<path d="M132.232 84.7336C133.295 86.6936 134.273 88.7045 135.639 90.4744C136.3 91.3587 137.089 92.1401 137.979 92.7931C138.536 93.1851 139.12 93.5516 139.694 93.9201C140.086 94.1749 140.478 94.4258 140.89 94.6629C141.144 94.8343 141.42 94.9701 141.711 95.0667C142.064 95.1529 142.215 94.6081 141.86 94.5199C141.785 94.5023 141.713 94.4732 141.646 94.4336C141.501 94.3611 141.358 94.2788 141.217 94.1965C140.878 94.0005 140.547 93.7927 140.217 93.583C139.663 93.2321 139.118 92.8676 138.569 92.5089C136.742 91.3153 135.488 89.4454 134.42 87.5834C133.832 86.5525 133.289 85.4921 132.72 84.4474C132.546 84.1279 132.058 84.4141 132.232 84.7336Z" fill="black"/>
<path d="M127.671 65.8079C128.276 65.7012 128.887 65.6305 129.5 65.5962C129.925 65.5962 130.355 65.6452 130.778 65.6864C131.94 65.7961 133.101 65.9392 134.265 66.0255C134.628 66.0509 134.626 65.4865 134.265 65.459C133.101 65.3728 131.94 65.2297 130.778 65.1199C130.359 65.0807 129.935 65.0317 129.514 65.0298C128.896 65.0632 128.281 65.1339 127.671 65.2415C127.313 65.2846 127.309 65.851 127.671 65.8079Z" fill="black"/>
<path d="M88.2774 74.8749C90.0241 73.5611 92.2318 73.018 94.3887 73.3716C94.7454 73.4324 94.8983 72.8875 94.5396 72.8248C92.2343 72.4323 89.8687 72.9987 87.9912 74.3928C87.7031 74.6084 87.9912 75.1003 88.2774 74.8828V74.8749Z" fill="black"/>
<path d="M107.499 73.0266C108.886 72.7577 110.308 72.7193 111.707 72.913C112.343 72.9926 112.969 73.133 113.577 73.3324C114.093 73.5088 114.59 73.7832 114.877 74.2614C114.96 74.3868 115.127 74.4254 115.257 74.3495C115.387 74.2736 115.435 74.1095 115.367 73.9753C114.683 72.8385 113.156 72.5602 111.948 72.3798C110.42 72.1529 108.865 72.1873 107.348 72.4818C106.992 72.5504 107.142 73.0972 107.499 73.0266Z" fill="black"/>
<path d="M74.1635 71.2566C71.4038 74.275 68.7127 77.3934 66.6312 80.9155C64.6712 84.2475 63.2541 87.9833 63.0228 91.8406C64.0432 91.6179 65.0411 91.3023 66.004 90.8978C67.0394 90.4591 68.04 89.9421 68.9969 89.3514C69.6966 85.2354 71.2215 81.1037 72.8542 77.2582C74.4516 73.4969 76.2685 69.6396 79.1262 66.7878L78.9596 66.8251C77.1603 68.052 75.6354 69.6475 74.1635 71.2566Z" fill="black"/>
<path d="M53.9696 84.8746C54.8189 82.9813 56.1757 81.36 57.8896 80.1902C58.2953 79.9158 58.8167 79.5081 59.3361 79.5747C59.5392 79.587 59.7216 79.7034 59.8182 79.8825C59.8653 80.0099 59.8025 80.2451 59.6497 80.2745C59.4968 80.3039 59.3851 80.0785 59.3811 79.9452C59.3811 79.6845 59.5771 79.4493 59.7359 79.267C60.0923 78.8655 60.4733 78.4865 60.8766 78.1322C61.7942 77.3092 62.8412 76.643 63.9754 76.1604C64.3066 76.0232 64.1616 75.4744 63.8245 75.6155C62.5605 76.1476 61.3966 76.8913 60.3827 77.8147C60.1377 78.0361 59.9005 78.2674 59.6712 78.5046C59.4159 78.7456 59.1908 79.0167 59.0009 79.3121C58.7285 79.7884 58.7441 80.4999 59.3008 80.7723C59.828 81.031 60.3709 80.5567 60.4003 80.0236C60.4317 79.4238 59.8515 79.0318 59.3067 79.0005C58.6324 78.9593 58.0013 79.4179 57.476 79.7845C55.7348 80.9923 54.3548 82.6508 53.4835 84.5825C53.3345 84.9138 53.8226 85.2019 53.9715 84.8687L53.9696 84.8746Z" fill="white"/>
<path d="M66.1999 74.8865L66.2705 74.8159C66.2971 74.791 66.3173 74.7601 66.3293 74.7257C66.3468 74.6919 66.3549 74.654 66.3528 74.616C66.3551 74.5779 66.347 74.54 66.3293 74.5062C66.3178 74.4716 66.2975 74.4406 66.2705 74.4161L66.2137 74.371C66.1699 74.3464 66.1207 74.333 66.0706 74.3318L65.9941 74.3435C65.9471 74.3559 65.9044 74.381 65.8707 74.4161L65.8001 74.4866C65.7731 74.5111 65.7528 74.5422 65.7413 74.5768C65.7236 74.6106 65.7155 74.6485 65.7178 74.6865C65.7151 74.724 65.7233 74.7614 65.7413 74.7943C65.7528 74.8295 65.773 74.8612 65.8001 74.8865L65.8569 74.9296C65.9004 74.955 65.9497 74.9685 66 74.9688L66.0745 74.959C66.122 74.9463 66.1653 74.9213 66.1999 74.8865Z" fill="white"/>
<path d="M68.0365 73.5655C68.1838 73.5532 68.2971 73.4301 68.2971 73.2822C68.2971 73.1344 68.1838 73.0113 68.0365 72.999C67.8892 73.0113 67.7759 73.1344 67.7759 73.2822C67.7759 73.4301 67.8892 73.5532 68.0365 73.5655Z" fill="white"/>
<path d="M67.3349 75.5999C67.4907 75.5999 67.6171 75.4735 67.6171 75.3176C67.6171 75.1618 67.4907 75.0354 67.3349 75.0354C67.179 75.0354 67.0526 75.1618 67.0526 75.3176C67.0526 75.4735 67.179 75.5999 67.3349 75.5999Z" fill="white"/>
<path d="M133.279 81.039L134.825 84.712C135.261 85.745 135.715 86.8073 136.519 87.6128C136.888 87.9904 137.328 88.2903 137.814 88.4948C138.234 88.6693 138.928 88.8869 139.304 88.5282C139.872 87.9755 139.586 86.1507 138.544 86.476C137.956 86.6603 138.075 87.411 138.242 87.8481C138.45 88.3988 138.793 88.8887 139.239 89.273C139.514 89.5101 139.916 89.1103 139.631 88.881C139.337 88.6313 139.092 88.328 138.91 87.9872C138.84 87.8559 138.475 87.1209 138.714 87.0209C138.875 86.9562 138.965 87.26 138.981 87.3561C139.007 87.5361 139.007 87.719 138.981 87.899C138.949 88.1166 138.877 88.1734 138.651 88.1499C138.45 88.1248 138.252 88.0741 138.063 87.999C136.411 87.3679 135.749 85.4823 135.123 83.9927L133.82 80.8881C133.681 80.5588 133.132 80.7038 133.273 81.039H133.279Z" fill="white"/>
<path d="M141.535 91.3859L141.64 91.28C141.668 91.2553 141.687 91.2233 141.697 91.1879C141.716 91.1552 141.725 91.1177 141.723 91.0801C141.724 91.0419 141.715 91.004 141.697 90.9703C141.687 90.9356 141.667 90.9044 141.64 90.8802L141.582 90.8351C141.538 90.8103 141.489 90.7969 141.438 90.7959L141.364 90.8077C141.316 90.8201 141.273 90.8451 141.239 90.8802L141.135 90.9841C141.107 91.0091 141.087 91.0409 141.076 91.0762C141.042 91.1447 141.042 91.2252 141.076 91.2937C141.086 91.3294 141.107 91.3613 141.135 91.3859L141.192 91.429C141.235 91.4547 141.284 91.4682 141.335 91.4682L141.409 91.4584C141.457 91.4457 141.5 91.4207 141.535 91.3859Z" fill="white"/>
<path d="M142.503 89.5101L142.397 89.6159C142.37 89.6408 142.35 89.6717 142.338 89.7061C142.321 89.7399 142.313 89.7778 142.315 89.8158C142.312 89.8539 142.32 89.8918 142.338 89.9256C142.35 89.9602 142.37 89.9912 142.397 90.0157L142.456 90.0608C142.498 90.0858 142.547 90.0987 142.597 90.0981L142.673 90.0883C142.721 90.0751 142.764 90.0501 142.799 90.0157L142.903 89.9099C142.93 89.8854 142.95 89.8544 142.961 89.8197C142.979 89.7858 142.988 89.7481 142.987 89.71C142.988 89.6725 142.979 89.6354 142.961 89.6022C142.95 89.567 142.93 89.5353 142.903 89.5101L142.846 89.4669C142.802 89.4413 142.753 89.4277 142.703 89.4277L142.628 89.4375C142.581 89.4502 142.537 89.4752 142.503 89.5101Z" fill="white"/>
<path d="M142.808 92.6265C142.956 92.6142 143.069 92.4911 143.069 92.3433C143.069 92.1955 142.956 92.0723 142.808 92.0601C142.661 92.0723 142.548 92.1955 142.548 92.3433C142.548 92.4911 142.661 92.6142 142.808 92.6265Z" fill="white"/>
<path d="M144.853 92.6206C146.301 93.7159 148.05 94.3405 149.865 94.4101C150.229 94.4238 150.229 93.8574 149.865 93.8436C148.15 93.7711 146.5 93.173 145.137 92.1306C144.849 91.9111 144.567 92.403 144.853 92.6206Z" fill="white"/>
<path d="M20.3674 38.1562C19.1773 40.4477 18.6711 43.0331 18.9092 45.6042C19.1365 47.9562 20.1107 50.4631 22.3921 51.4999C23.3981 51.9894 24.564 52.0314 25.6026 51.6156C26.612 51.1804 27.3411 50.1965 27.2764 49.0676C27.2157 47.9994 26.2964 46.9116 25.1459 47.3036C23.9954 47.6956 23.6661 48.946 23.7876 50.0358C24.0601 52.5681 25.8241 54.6634 27.884 56.0256C28.1898 56.2216 28.472 55.7374 28.1702 55.5375C26.5787 54.487 25.1792 52.9895 24.5951 51.1314C24.3188 50.2592 24.0659 48.9931 24.7382 48.2306C25.0126 47.919 25.4595 47.6956 25.877 47.8269C26.3337 47.9719 26.6159 48.4482 26.6923 48.897C26.857 49.877 26.2023 50.7649 25.3203 51.1216C24.4122 51.4566 23.4047 51.3918 22.5469 50.9433C20.5869 49.975 19.7245 47.8249 19.4952 45.7689C19.2238 43.245 19.701 40.697 20.8672 38.4424C21.0338 38.119 20.5458 37.8328 20.3772 38.1562H20.3674Z" fill="#AFAA96"/>
<path d="M7.20402 56.8233C9.25534 59.4656 11.7146 61.7641 14.4893 63.6323C15.2733 64.1615 16.0835 64.6548 16.9197 65.1121C17.2392 65.2866 17.5254 64.7985 17.2059 64.6221C14.3042 63.0293 11.6754 60.9835 9.41882 58.5618C8.78248 57.8758 8.17749 57.163 7.60386 56.4234C7.38042 56.1353 6.98254 56.5391 7.21186 56.8154L7.20402 56.8233Z" fill="#AFAA96"/>
<path d="M160.868 63.2443C164.46 61.7031 167.909 59.8483 171.176 57.7015C172.099 57.0965 173.006 56.4673 173.896 55.814C174.186 55.6023 173.896 55.1103 173.61 55.3259C170.454 57.6328 167.101 59.6575 163.59 61.3765C162.599 61.8612 161.596 62.3186 160.582 62.7485C160.249 62.8915 160.535 63.3796 160.868 63.2365V63.2443Z" fill="#AFAA96"/>
<path d="M137.713 26.5883C136.163 29.9857 134.751 33.4359 133.477 36.9391C133.118 37.9335 132.769 38.9305 132.432 39.9301C132.317 40.277 132.864 40.424 132.979 40.081C134.155 36.5778 135.474 33.1263 136.934 29.7263C137.346 28.7698 137.768 27.8186 138.201 26.8725C138.352 26.5433 137.864 26.2571 137.713 26.5883Z" fill="#AFAA96"/>
<path d="M79.1537 26.5237L78.7323 37.0547C78.7166 37.4193 79.283 37.4193 79.2987 37.0547L79.724 26.5237C79.7397 26.1591 79.1733 26.1611 79.1595 26.5237H79.1537Z" fill="#AFAA96"/>
<path d="M193.328 64.3694C192.492 67.5298 190.703 70.3561 188.204 72.4642C186.968 73.5185 185.577 74.3747 184.078 75.0024C182.736 75.559 181.187 76.0647 179.723 75.7276C179.092 75.5806 178.512 75.2533 178.212 74.6574C177.883 74.0028 178.067 73.207 178.496 72.6445C179.582 71.2235 181.685 71.7664 182.681 72.9934C183.771 74.336 183.857 76.2921 183.422 77.8934C182.987 79.4947 182.001 80.9275 180.788 82.0604C177.971 84.7122 174.029 85.4962 170.337 86.049L168.869 86.2567C168.51 86.3057 168.663 86.8447 169.02 86.8016C173.049 86.245 177.377 85.6256 180.627 82.962C182.046 81.8277 183.136 80.3341 183.782 78.6362C184.396 76.933 184.443 74.9122 183.555 73.2894C182.697 71.7214 180.691 70.6708 178.975 71.5254C177.52 72.2466 176.944 74.3046 178.136 75.5179C179.216 76.6155 181.076 76.5214 182.448 76.1588C184.139 75.6971 185.739 74.9515 187.181 73.9538C190.103 71.9599 192.316 69.0888 193.5 65.7551C193.641 65.3487 193.765 64.9371 193.871 64.5203C193.912 64.3699 193.823 64.2145 193.673 64.1734C193.522 64.1323 193.367 64.2209 193.326 64.3714L193.328 64.3694Z" fill="#AFAA96"/>
<path d="M168.512 102.617C172.066 102.839 175.633 102.552 179.106 101.764C180.103 101.537 181.089 101.268 182.065 100.957C182.41 100.847 182.261 100.3 181.914 100.412C178.552 101.479 175.053 102.055 171.526 102.123C170.519 102.142 169.513 102.12 168.508 102.056C168.143 102.033 168.145 102.599 168.508 102.623L168.512 102.617Z" fill="#AFAA96"/>
<path d="M162.191 115.443C164.48 115.729 166.803 115.543 169.018 114.896C169.367 114.794 169.214 114.247 168.869 114.351C166.702 114.981 164.43 115.16 162.191 114.878C161.83 114.831 161.834 115.398 162.191 115.443Z" fill="#AFAA96"/>
<path d="M72.2604 130.805C70.9944 136.266 70.5374 141.882 70.9041 147.475C71.006 149.031 71.1719 150.58 71.4019 152.122C71.4548 152.483 72.0017 152.33 71.9487 151.973C71.1461 146.518 71.1461 140.975 71.9487 135.519C72.1735 133.988 72.4616 132.467 72.8131 130.956C72.8954 130.601 72.3505 130.451 72.2682 130.805H72.2604Z" fill="#AFAA96"/>
<path d="M64.7026 137.207C64.3972 140.604 64.5018 144.026 65.0143 147.399C65.0692 147.757 65.614 147.605 65.5611 147.248C65.0603 143.926 64.9622 140.556 65.2691 137.211C65.3004 136.848 64.736 136.85 64.7026 137.211V137.207Z" fill="#AFAA96"/>
<path d="M127.862 142.581L128.842 152.659L129.124 155.533C129.159 155.891 129.726 155.895 129.69 155.533L128.7 145.452L128.418 142.581C128.383 142.22 127.817 142.218 127.852 142.581H127.862Z" fill="#AFAA96"/>
<path d="M134.837 145.737L135.47 151.421C135.51 151.779 136.076 151.783 136.035 151.421L135.404 145.737C135.365 145.38 134.798 145.376 134.837 145.737Z" fill="#AFAA96"/>
</svg>
